<svg version="1.1" xmlns="http://www.w3.org/2000/svg" xmlns:xlink="http://www.w3.org/1999/xlink" width="461.87082" height="918.94566" viewBox="729.06459,0.02717,461.87082,918.94566"><g fill="none" fill-rule="evenodd" stroke="none" stroke-width="1" stroke-linecap="butt" stroke-linejoin="miter" stroke-miterlimit="10" stroke-dasharray="" stroke-dashoffset="0" font-family="none" font-weight="none" font-size="none" text-anchor="none" style="mix-blend-mode: normal"><g id="Group 1"><path d="M1032.41376,0.15082c-0.222,0.202 -3.779,0.635 -7.904,0.963c-9.518,0.757 -11.262,1.114 -21.274,4.358c-4.524,1.466 -8.451,2.721 -8.726,2.788c-1.655,0.405 -12.724,6.21 -13.821,7.249c-0.727,0.687 -1.759,1.25 -2.294,1.25c-0.535,0 -2.186,1.125 -3.668,2.5c-1.483,1.375 -3.023,2.5 -3.422,2.5c-1.43,0 -20.795,19.195 -20.795,20.612c0,0.287 -1.071,1.954 -2.381,3.705c-3.026,4.047 -10.702,17.683 -9.953,17.683c0.31,0 -0.076,1.013 -0.858,2.25c-1.478,2.339 -3.822,9.306 -5.132,15.25c-0.371,1.684 -1.611,8.435 -2.205,12c-0.091,0.55 -0.235,34.081 -0.319,74.513l-0.152,73.513l-5.425,4.237c-2.983,2.33 -5.658,4.237 -5.944,4.237c-0.286,0 -2.232,1.573 -4.325,3.495c-2.093,1.923 -4.368,3.498 -5.056,3.5c-0.687,0.003 -1.25,0.469 -1.25,1.036c0,0.568 -0.722,1.309 -1.605,1.648c-0.883,0.339 -3.246,2.122 -5.25,3.964c-2.005,1.841 -4.17,3.35 -4.812,3.352c-0.641,0.003 -1.316,0.406 -1.5,0.896c-0.469,1.256 -10.574,9.109 -11.72,9.109c-0.521,0 -1.096,0.401 -1.28,0.891c-0.489,1.308 -10.598,9.109 -11.804,9.109c-0.566,0 -1.029,0.343 -1.029,0.763c0,0.775 -10.416,9.237 -11.369,9.237c-0.286,0 -2.232,1.573 -4.325,3.495c-2.093,1.923 -4.32,3.498 -4.949,3.5c-0.629,0.003 -1.402,0.68 -1.719,1.505c-0.316,0.825 -1.014,1.5 -1.551,1.5c-0.537,0 -2.688,1.573 -4.781,3.495c-2.093,1.923 -4.331,3.498 -4.973,3.5c-0.641,0.003 -1.316,0.406 -1.5,0.896c-0.489,1.308 -10.598,9.109 -11.804,9.109c-0.566,0 -1.029,0.364 -1.029,0.808c0,0.445 -1.808,2.132 -4.017,3.75c-6.862,5.024 -23.35,20.691 -29.483,28.014c-2.2,2.627 -5.013,5.843 -6.25,7.148c-1.237,1.304 -2.25,2.7 -2.25,3.103c0,0.402 -1.237,2.121 -2.75,3.821c-1.512,1.699 -3.293,3.937 -3.956,4.972c-0.663,1.036 -3.336,5.259 -5.94,9.384c-2.604,4.125 -4.999,7.725 -5.322,8c-0.323,0.275 -1.431,2.413 -2.461,4.75c-1.031,2.337 -2.283,4.25 -2.782,4.25c-0.499,0 -0.629,0.45 -0.289,1c0.34,0.55 0.115,1 -0.5,1c-0.615,0 -0.864,0.412 -0.553,0.915c0.311,0.503 0.108,1.067 -0.451,1.253c-0.559,0.186 -1.2,1.297 -1.426,2.469c-0.226,1.171 -1.298,3.869 -2.383,5.996c-1.085,2.127 -1.945,4.092 -1.911,4.367c0.034,0.275 -0.555,1.625 -1.309,3c-0.754,1.375 -1.46,2.95 -1.57,3.5c-0.109,0.55 -0.768,2.35 -1.464,4c-0.696,1.65 -1.359,3.337 -1.474,3.75c-0.115,0.413 -0.322,0.975 -0.459,1.25c-0.137,0.275 -0.363,0.95 -0.5,1.5c-0.137,0.55 -0.363,1.225 -0.5,1.5c-0.137,0.275 -0.363,0.95 -0.5,1.5c-0.137,0.55 -0.34,1.113 -0.449,1.25c-0.11,0.137 -0.396,1.375 -0.637,2.75c-0.24,1.375 -0.725,3.175 -1.077,4c-1.051,2.465 -2.194,6.931 -2.815,11c-0.21,1.375 -0.903,4.75 -1.541,7.5c-1.363,5.884 -1.684,7.982 -2.448,16c-0.314,3.3 -0.987,10.05 -1.495,15c-1.027,10.003 -0.351,29.118 1.405,39.732c0.298,1.797 0.809,5.518 1.136,8.268c0.327,2.75 0.792,6.011 1.032,7.247c0.241,1.236 0.633,3.261 0.871,4.5c0.239,1.239 1.308,5.516 2.376,9.503c1.069,3.987 1.707,7.25 1.42,7.25c-0.288,0 -0.076,0.563 0.469,1.25c0.546,0.688 1.556,3.05 2.245,5.25c4.099,13.086 17.328,42.586 20.758,46.292c0.688,0.743 1.25,1.956 1.25,2.696c0,0.74 0.369,1.495 0.819,1.679c1.105,0.449 9.181,12.476 9.181,13.671c0,0.521 0.675,1.207 1.5,1.524c0.825,0.316 1.5,1.264 1.5,2.107c0,0.842 0.354,1.531 0.786,1.531c0.432,0 2.246,1.913 4.03,4.25c9.615,12.599 19.747,22.843 34.539,34.919c1.57,1.282 3.708,3.119 4.75,4.081c1.042,0.963 2.237,1.75 2.655,1.75c0.418,0 1.881,1.012 3.25,2.25c1.37,1.237 3.72,2.884 5.223,3.66c1.503,0.775 3.541,2.125 4.527,3c0.987,0.874 3.549,2.49 5.694,3.59c2.144,1.1 4.385,2.45 4.978,3c1.125,1.042 20.318,10.684 22.068,11.087c0.55,0.126 2.8,0.999 5,1.94c6.327,2.706 8.962,3.796 9.5,3.93c0.99,0.247 11.534,3.711 13,4.271c0.825,0.315 2.377,0.741 3.448,0.946c1.072,0.206 4.447,1.009 7.5,1.786c3.054,0.777 8.477,1.901 12.052,2.499c3.575,0.598 7.512,1.31 8.75,1.583l2.25,0.496v51.531c0,56.88 0.283,54.215 -6.467,60.964c-3.255,3.255 -9.533,7.121 -9.533,5.87c0,-0.356 -0.579,-0.167 -1.287,0.42c-1.657,1.375 -13.158,0.882 -14.995,-0.642c-0.771,-0.64 -1.698,-0.868 -2.06,-0.506c-0.362,0.362 -0.658,0.133 -0.658,-0.508c0,-0.642 -0.469,-1.167 -1.042,-1.167c-1.952,0 -7.528,-5.356 -9.508,-9.133c-2.557,-4.878 -3.591,-16.231 -1.747,-19.182c0.407,-0.652 0.841,-1.852 0.964,-2.667c0.123,-0.815 0.699,-1.64 1.279,-1.833c0.579,-0.193 1.054,-0.989 1.054,-1.768c0,-0.78 0.398,-1.417 0.883,-1.417c0.486,0 1.213,-1.013 1.616,-2.25c0.403,-1.237 0.821,-2.475 0.929,-2.75c0.108,-0.275 0.718,-2.975 1.355,-6c2.225,-10.565 -0.602,-19.874 -8.283,-27.277c-6.963,-6.711 -13.23,-9.1 -23,-8.767c-16.33,0.557 -26.19,11.086 -36.096,38.544c-0.397,1.1 -0.667,2.287 -0.6,2.637c0.066,0.351 -0.359,2.151 -0.946,4c-1.307,4.119 -1.883,27.412 -0.763,30.863c0.446,1.375 1.018,3.85 1.271,5.5c0.253,1.65 1.213,5.025 2.133,7.5c0.921,2.475 1.782,4.95 1.914,5.5c0.338,1.414 4.929,10.798 5.87,12c0.43,0.55 2.882,3.873 5.448,7.385c6.516,8.917 17.937,19.143 25.019,22.401c1.238,0.569 2.25,1.439 2.25,1.934c0,0.494 0.45,0.62 1,0.28c0.55,-0.34 1,-0.115 1,0.5c0,0.615 0.45,0.84 1,0.5c0.55,-0.34 1,-0.141 1,0.441c0,0.582 0.338,0.956 0.75,0.829c0.412,-0.126 2.775,0.623 5.25,1.665c2.475,1.041 4.95,1.996 5.5,2.121c18.939,4.296 34.056,4.809 45.25,1.534c1.788,-0.523 3.25,-0.702 3.25,-0.398c0,0.304 0.562,0.11 1.25,-0.432c1.041,-0.819 2.811,-1.442 7.75,-2.727c1.521,-0.396 13.053,-6.721 16.294,-8.938c2.087,-1.427 3.979,-2.595 4.205,-2.595c0.226,0 1.443,-1.026 2.706,-2.28c1.262,-1.254 3.212,-2.941 4.332,-3.75c1.121,-0.808 4.04,-4.057 6.487,-7.22c2.447,-3.163 4.793,-5.75 5.213,-5.75c0.42,0 0.763,-0.675 0.763,-1.5c0,-0.825 0.45,-1.5 1,-1.5c0.55,0 1,-0.643 1,-1.429c0,-0.785 0.707,-2.135 1.571,-3c0.865,-0.864 1.202,-1.578 0.75,-1.586c-0.451,-0.009 -0.248,-0.379 0.452,-0.824c0.701,-0.444 1.457,-1.758 1.681,-2.92c0.223,-1.161 0.978,-3.153 1.677,-4.426c0.699,-1.273 1.415,-3.18 1.59,-4.237c0.175,-1.056 0.815,-2.519 1.421,-3.25c0.607,-0.73 0.854,-1.328 0.55,-1.328c-0.304,0 -0.126,-1.463 0.395,-3.25c0.548,-1.882 0.934,-26.932 0.915,-59.5c-0.017,-30.937 0.312,-56.32 0.733,-56.407c0.421,-0.086 1.89,-0.28 3.265,-0.431c2.252,-0.247 5.762,-0.831 11.5,-1.913c1.1,-0.208 3.545,-0.847 5.434,-1.421c1.888,-0.574 3.647,-0.83 3.908,-0.57c0.261,0.261 0.965,0.087 1.566,-0.386c0.875,-0.689 5.931,-2.147 12.842,-3.703c0.413,-0.093 0.975,-0.281 1.25,-0.419c0.275,-0.138 0.95,-0.362 1.5,-0.5c0.55,-0.138 1.225,-0.362 1.5,-0.5c0.275,-0.138 0.837,-0.344 1.25,-0.459c0.413,-0.115 2.1,-0.778 3.75,-1.474c1.65,-0.696 3.45,-1.355 4,-1.464c0.55,-0.11 1.9,-0.696 3,-1.302c1.1,-0.607 2.342,-1.139 2.76,-1.182c0.419,-0.043 2.102,-0.772 3.74,-1.619c1.638,-0.847 3.321,-1.591 3.74,-1.653c1.144,-0.169 13.685,-6.26 14.26,-6.926c0.275,-0.319 2.975,-1.894 6,-3.5c3.025,-1.607 5.725,-3.176 6,-3.487c0.849,-0.961 9.827,-6.934 10.423,-6.934c0.309,0 1.578,-0.86 2.819,-1.912c1.242,-1.051 5.408,-4.445 9.258,-7.541c7.274,-5.849 26.776,-24.857 32,-31.189c1.65,-2 3.709,-4.396 4.576,-5.324c0.867,-0.928 1.866,-2.44 2.219,-3.36c0.353,-0.921 1.106,-1.674 1.674,-1.674c0.567,0 1.031,-0.567 1.031,-1.26c0,-0.693 1.125,-2.474 2.5,-3.957c1.375,-1.482 2.5,-3.165 2.5,-3.739c0,-0.574 0.45,-1.044 1,-1.044c0.55,0 1,-0.637 1,-1.417c0,-0.779 0.337,-1.566 0.75,-1.75c0.413,-0.183 1.866,-2.47 3.229,-5.083c1.364,-2.612 2.826,-4.75 3.25,-4.75c0.424,0 0.771,-0.42 0.771,-0.933c0,-0.513 3.113,-7.282 6.918,-15.041c3.804,-7.758 6.95,-14.426 6.989,-14.816c0.039,-0.391 0.587,-2.06 1.218,-3.71c0.63,-1.65 1.319,-3.865 1.53,-4.922c0.212,-1.056 0.881,-2.519 1.487,-3.25c0.607,-0.73 0.768,-1.328 0.358,-1.328c-0.41,0 -0.185,-0.675 0.5,-1.5c0.685,-0.825 0.976,-1.5 0.647,-1.5c-0.329,0 -0.117,-1.237 0.47,-2.75c0.587,-1.513 1.272,-3.875 1.522,-5.25c0.251,-1.375 0.955,-4.3 1.565,-6.5c0.61,-2.2 1.235,-4.675 1.39,-5.5c0.154,-0.825 0.488,-2.625 0.742,-4c0.255,-1.375 0.763,-4.975 1.129,-8c0.367,-3.025 0.859,-6.091 1.094,-6.814c0.637,-1.958 1.933,-20.87 1.864,-27.186c-0.051,-4.606 -0.908,-13.811 -1.863,-20c-0.609,-3.947 -2.885,-14.052 -4.251,-18.872c-0.837,-2.954 -1.664,-6.104 -1.839,-7c-0.174,-0.895 -0.408,-1.741 -0.518,-1.878c-0.111,-0.137 -0.296,-0.587 -0.411,-1c-0.115,-0.413 -0.778,-2.1 -1.474,-3.75c-0.696,-1.65 -1.358,-3.45 -1.471,-4c-0.113,-0.55 -0.977,-2.458 -1.921,-4.24c-0.943,-1.781 -1.711,-3.466 -1.706,-3.744c0.02,-1.029 -4.509,-10.059 -5.653,-11.272c-0.652,-0.691 -1.5,-2.266 -1.885,-3.5c-0.385,-1.234 -1.007,-2.469 -1.382,-2.744c-1.302,-0.956 -7.049,-9.867 -7.049,-10.93c0,-0.589 -0.464,-1.07 -1.031,-1.07c-0.568,0 -1.321,-0.753 -1.674,-1.674c-0.907,-2.362 -2.055,-3.627 -15.525,-17.096c-13.746,-13.747 -15.382,-15.23 -16.801,-15.23c-0.568,0 -1.291,-0.675 -1.607,-1.5c-0.317,-0.825 -0.997,-1.5 -1.512,-1.5c-0.514,0 -3.286,-1.736 -6.158,-3.858c-2.872,-2.122 -6.225,-4.177 -7.451,-4.566c-1.226,-0.389 -2.794,-1.24 -3.485,-1.892c-1.141,-1.075 -14.57,-7.855 -15.756,-7.953c-0.275,-0.023 -2.075,-0.7 -4,-1.505c-1.925,-0.805 -4.625,-1.935 -6,-2.511c-2.915,-1.221 -2.522,-1.101 -7,-2.139c-1.925,-0.446 -3.95,-1.083 -4.5,-1.415c-1.075,-0.65 -2.382,-0.965 -6.854,-1.653c-1.57,-0.242 -3.752,-0.724 -4.85,-1.073c-1.097,-0.348 -3.188,-0.798 -4.646,-0.999c-1.457,-0.202 -4.9,-0.673 -7.65,-1.047c-6.187,-0.843 -36.036,-0.825 -43.5,0.027c-11.236,1.281 -15.793,1.946 -21.747,3.171c-1.236,0.254 -3.261,0.652 -4.5,0.884c-4.101,0.767 -8.281,1.856 -10.753,2.8c-2.004,0.765 -15.366,5.128 -16,5.224c-0.275,0.042 -1.625,0.698 -3,1.459c-1.375,0.761 -2.611,1.31 -2.747,1.22c-0.49,-0.324 -19.772,9.355 -21.069,10.576c-0.73,0.688 -1.764,1.25 -2.297,1.25c-0.534,0 -1.859,0.828 -2.946,1.84c-1.086,1.012 -3.205,2.474 -4.708,3.248c-1.503,0.775 -3.093,1.972 -3.533,2.66c-0.44,0.689 -1.452,1.252 -2.25,1.252c-0.797,0 -1.45,0.346 -1.45,0.77c0,0.423 -2.307,2.561 -5.126,4.75c-5.643,4.382 -13.463,12.076 -18.874,18.572c-1.925,2.311 -4.287,5.036 -5.25,6.055c-0.962,1.019 -1.75,2.195 -1.75,2.613c0,0.418 -1.125,1.974 -2.5,3.457c-1.375,1.482 -2.5,3.128 -2.5,3.656c0,0.528 -0.337,1.11 -0.75,1.294c-0.412,0.183 -2.1,2.919 -3.75,6.08c-1.65,3.16 -3.364,5.748 -3.809,5.75c-0.445,0.001 -0.531,0.453 -0.191,1.003c0.34,0.55 0.115,1 -0.5,1c-0.615,0 -0.84,0.45 -0.5,1c0.34,0.55 0.115,1 -0.5,1c-0.615,0 -0.84,0.45 -0.5,1c0.34,0.55 0.066,1 -0.608,1c-0.674,0 -0.943,0.282 -0.599,0.627c0.345,0.345 -0.039,1.915 -0.853,3.489c-0.814,1.575 -1.516,3.205 -1.559,3.624c-0.043,0.418 -0.574,1.66 -1.181,2.76c-0.606,1.1 -1.225,2.726 -1.374,3.614c-0.15,0.887 -0.803,2.912 -1.452,4.5c-0.649,1.587 -1.347,3.763 -1.551,4.834c-0.204,1.072 -1.082,4.672 -1.951,8c-0.869,3.329 -1.716,7.177 -1.883,8.552c-1.962,16.209 -2.239,25.287 -1.088,35.674c0.792,7.144 0.863,7.528 3.091,16.826c0.923,3.85 1.83,7.675 2.017,8.5c0.186,0.825 0.429,1.612 0.539,1.75c0.111,0.138 0.296,0.587 0.411,1c0.115,0.413 0.778,2.1 1.474,3.75c0.696,1.65 1.366,3.45 1.49,4c0.442,1.972 7.103,15.027 8.327,16.321c0.688,0.727 1.25,1.965 1.25,2.75c0,0.786 0.45,1.429 1,1.429c0.55,0 1,0.675 1,1.5c0,0.825 0.374,1.5 0.83,1.5c0.457,0 2.232,1.913 3.945,4.25c3.66,4.995 21.407,22.75 22.74,22.75c0.523,0 11.567,7.074 12.485,7.997c0.64,0.644 10.177,5.275 11.5,5.585c0.55,0.129 2.8,1.036 5,2.015c2.2,0.98 4.338,1.865 4.75,1.967c0.412,0.102 0.975,0.298 1.25,0.436c0.631,0.316 2.209,0.713 3.476,0.875c0.581,0.074 1.088,7.104 1.25,17.335l0.274,17.21l3.5,0.753c8.793,1.893 30.15,2.689 38.5,1.435c1.1,-0.165 4.7,-0.684 8,-1.153c3.3,-0.469 6.337,-0.932 6.75,-1.029c0.413,-0.097 1.673,-0.232 2.8,-0.301c1.985,-0.121 2.041,-0.606 1.75,-15.126c-0.23,-11.496 -0.008,-15.002 0.95,-15c1.986,0.002 2.036,-0.012 5.727,-1.554c1.932,-0.807 3.741,-1.463 4.018,-1.456c0.278,0.006 0.73,-0.045 1.005,-0.114c0.275,-0.069 0.837,-0.209 1.25,-0.311c0.413,-0.102 2.492,-0.946 4.622,-1.875c2.13,-0.929 4.155,-1.688 4.5,-1.686c0.751,0.003 9.413,-4.284 10.128,-5.012c0.948,-0.966 8.958,-5.991 9.55,-5.991c0.326,0 1.189,-0.563 1.917,-1.25c0.728,-0.687 2.742,-2.375 4.474,-3.75c6.074,-4.82 14.261,-13.568 19.652,-21c2.993,-4.125 5.778,-7.95 6.189,-8.5c0.412,-0.55 2.609,-5.05 4.884,-10c8.779,-19.105 11.072,-32.978 7.07,-42.765c-1.178,-2.879 -2.541,-5.512 -3.029,-5.85c-0.488,-0.338 -1.41,-1.657 -2.047,-2.932c-1.738,-3.47 -15.33,-10.178 -20.758,-10.243c-6.396,-0.077 -11.969,0.59 -12.531,1.499c-0.269,0.435 -1.17,0.791 -2.001,0.791c-0.832,0 -2.143,0.563 -2.914,1.25c-0.771,0.688 -3.132,2.593 -5.247,4.234c-3.35,2.599 -9.02,11.648 -9.838,15.697c-1.189,5.892 -1.561,7.312 -2.158,8.249c-0.375,0.588 -0.694,1.295 -0.709,1.57c-0.086,1.591 -2.887,7 -3.625,7c-0.484,0 -0.879,0.675 -0.879,1.5c0,0.825 -0.45,1.5 -1,1.5c-0.55,0 -1,0.63 -1,1.4c0,1.715 -10.453,11.41 -13.957,12.946c-1.399,0.612 -2.813,1.49 -3.143,1.95c-0.33,0.46 -1.23,0.932 -2,1.049c-0.77,0.116 -2.003,0.587 -2.739,1.047c-5.013,3.129 -26.845,4.493 -35.161,2.196c-1.375,-0.38 -3.593,-0.916 -4.93,-1.191c-1.336,-0.276 -2.911,-0.808 -3.5,-1.184c-0.588,-0.375 -1.31,-0.689 -1.602,-0.698c-1.49,-0.043 -8.968,-3.935 -8.968,-4.667c0,-0.466 -0.59,-0.848 -1.311,-0.848c-0.722,0 -2.278,-0.9 -3.459,-2c-1.18,-1.1 -2.575,-2 -3.1,-2c-0.524,0 -3.701,-2.999 -7.06,-6.665c-5.754,-6.279 -11.561,-16.057 -12.525,-21.089c-0.237,-1.239 -0.658,-2.621 -0.936,-3.069c-1.006,-1.628 -2.005,-10.857 -2.022,-18.677c-0.017,-7.421 0.489,-12.251 1.936,-18.5c0.319,-1.375 0.806,-3.625 1.082,-5c0.277,-1.375 1.675,-4.975 3.108,-8c1.432,-3.025 2.533,-5.838 2.446,-6.25c-0.088,-0.413 0.201,-0.75 0.64,-0.75c0.44,0 1.369,-1.575 2.065,-3.5c0.696,-1.925 1.686,-3.5 2.201,-3.5c0.514,0 0.935,-0.675 0.935,-1.5c0,-0.825 0.45,-1.5 1,-1.5c0.55,0 1,-0.689 1,-1.531c0,-0.843 0.675,-1.791 1.5,-2.107c0.825,-0.317 1.5,-1.104 1.5,-1.749c0,-0.645 1.562,-2.646 3.471,-4.447l3.471,-3.273l0.058,41.303c0.06,43.094 0.073,43.53 1.337,45.554c0.43,0.688 0.508,1.25 0.174,1.25c-1.231,0 5.533,8.855 8.708,11.4c1.804,1.447 3.796,3.046 4.424,3.555c0.629,0.509 1.417,0.652 1.75,0.318c0.334,-0.333 0.607,-0.006 0.607,0.727c0,0.733 0.266,1.067 0.592,0.742c0.325,-0.326 2.463,0.202 4.75,1.172c8.55,3.628 22.708,2.138 34.512,-3.633l5.354,-2.617l-0.354,-65.844c-0.311,-57.862 -0.172,-65.9 1.146,-66.308c6.918,-2.141 39.196,-2.855 48.5,-1.074c12.469,2.387 20.285,4.776 25.097,7.672c1.703,1.025 3.39,1.569 3.75,1.21c0.359,-0.359 0.653,-0.102 0.653,0.572c0,0.674 0.412,0.972 0.915,0.661c0.503,-0.311 1.065,-0.225 1.25,0.191c0.184,0.416 2.472,1.831 5.085,3.145c2.613,1.314 4.75,2.776 4.75,3.25c0,0.474 0.563,0.861 1.25,0.861c1.569,0 17.333,13.352 18.633,15.782c0.53,0.989 2.572,3.556 4.54,5.703c1.967,2.148 3.577,4.493 3.577,5.21c0,0.718 0.387,1.305 0.861,1.305c0.474,0 1.936,2.137 3.25,4.75c1.314,2.613 2.729,4.901 3.145,5.085c0.416,0.185 0.502,0.747 0.191,1.25c-0.311,0.503 -0.088,0.915 0.494,0.915c0.582,0 1.059,0.873 1.059,1.941c0,1.068 0.415,2.197 0.922,2.511c0.874,0.54 4.581,10.715 5.602,15.376c0.262,1.195 0.709,3.185 0.994,4.422c1.618,7.024 1.936,10.192 1.936,19.25c0.001,11.285 -1.274,24.08 -3.139,31.5c-0.345,1.375 -0.755,3.149 -0.911,3.941c-0.156,0.793 -0.543,2.478 -0.861,3.746c-0.319,1.267 -0.547,2.419 -0.508,2.559c0.04,0.139 -1.514,4.81 -3.452,10.377c-3.246,9.326 -12.001,28.207 -13.621,29.377c-0.381,0.275 -1.008,1.512 -1.395,2.75c-0.386,1.237 -1.121,2.25 -1.634,2.25c-0.513,0 -0.933,0.567 -0.933,1.26c0,0.693 -1.125,2.474 -2.5,3.957c-1.375,1.482 -2.5,3.053 -2.501,3.489c0,0.437 -1.538,2.594 -3.417,4.794c-1.879,2.2 -4.916,5.791 -6.749,7.979c-6.306,7.529 -22.213,22.45 -24.919,23.374c-0.568,0.195 -2.198,1.432 -3.62,2.75c-1.422,1.318 -3.195,2.397 -3.94,2.397c-0.745,0 -1.354,0.45 -1.354,1c0,0.55 -0.675,1 -1.5,1c-0.825,0 -1.5,0.378 -1.5,0.841c0,0.974 -10.13,6.723 -11.25,6.385c-0.413,-0.124 -0.75,0.169 -0.75,0.653c0,0.706 -4.841,3.264 -7,3.699c-0.275,0.055 -2.701,1.122 -5.391,2.37c-2.69,1.249 -5.39,2.378 -6,2.51c-0.61,0.132 -1.784,0.525 -2.609,0.874c-4.155,1.757 -10,3.512 -10,3.001c0,-0.318 -0.562,-0.132 -1.25,0.414c-1.258,0.997 -8.253,2.831 -14.75,3.866c-7.234,1.152 -8.672,1.343 -15.5,2.054c-13.833,1.441 -33.893,0.724 -46.469,-1.661c-6.05,-1.147 -16.926,-3.84 -19.031,-4.712c-0.825,-0.342 -1.838,-0.716 -2.25,-0.833c-0.412,-0.116 -0.975,-0.323 -1.25,-0.461c-0.275,-0.138 -0.95,-0.362 -1.5,-0.5c-0.55,-0.138 -1.113,-0.341 -1.25,-0.452c-0.137,-0.11 -1.038,-0.352 -2.002,-0.536c-3.416,-0.654 -26.924,-11.883 -29.034,-13.869c-0.668,-0.629 -2.444,-1.777 -3.947,-2.553c-1.503,-0.775 -3.622,-2.238 -4.708,-3.25c-1.087,-1.012 -2.332,-1.84 -2.767,-1.841c-0.436,0 -2.592,-1.538 -4.792,-3.417c-2.2,-1.879 -5.793,-4.916 -7.984,-6.749c-6.205,-5.191 -20.516,-19.89 -20.516,-21.072c0,-0.351 -1.35,-2.116 -3,-3.922c-1.65,-1.807 -3,-3.653 -3,-4.104c0,-0.45 -0.828,-1.707 -1.84,-2.794c-1.012,-1.086 -2.475,-3.205 -3.25,-4.708c-0.776,-1.503 -1.924,-3.279 -2.553,-3.947c-0.628,-0.668 -3.067,-5.168 -5.419,-10c-2.352,-4.832 -4.835,-9.911 -5.516,-11.286c-0.682,-1.375 -1.335,-2.95 -1.451,-3.5c-0.116,-0.55 -0.651,-2.125 -1.19,-3.5c-0.539,-1.375 -1.06,-2.95 -1.158,-3.5c-0.099,-0.55 -0.531,-1.562 -0.96,-2.25c-0.43,-0.688 -0.552,-1.25 -0.273,-1.25c0.279,0 -0.15,-1.575 -0.954,-3.5c-0.805,-1.925 -1.216,-3.5 -0.914,-3.5c0.301,0 0.128,-0.787 -0.387,-1.75c-0.514,-0.962 -1.25,-3.55 -1.635,-5.75c-0.385,-2.2 -0.858,-4.9 -1.05,-6c-1.197,-6.841 -1.602,-9.74 -2.236,-16c-0.905,-8.935 -0.908,-20.94 -0.008,-30.5c0.647,-6.874 1.077,-9.991 2.347,-17c0.249,-1.375 0.609,-3.4 0.8,-4.5c0.776,-4.468 1.917,-9.058 2.486,-10c0.333,-0.55 0.686,-1.536 0.786,-2.19c0.377,-2.486 2.677,-8.862 3.628,-10.06c0.545,-0.687 0.66,-1.25 0.254,-1.25c-0.405,0 0,-1.125 0.901,-2.5c0.901,-1.375 1.394,-2.5 1.095,-2.5c-0.299,0 0.456,-1.912 1.679,-4.25c1.222,-2.337 2.131,-4.587 2.02,-5c-0.111,-0.413 0.165,-0.75 0.614,-0.75c0.449,0 1.842,-2.475 3.096,-5.5c1.253,-3.025 2.686,-5.5 3.184,-5.5c0.497,0 0.904,-0.617 0.904,-1.372c0,-3.27 13.462,-20.125 26.26,-32.878c7.589,-7.562 14.21,-13.75 14.714,-13.75c0.503,0 2.627,-1.573 4.72,-3.495c2.093,-1.923 4.32,-3.498 4.949,-3.5c0.629,-0.003 1.402,-0.68 1.719,-1.505c0.316,-0.825 1.014,-1.5 1.551,-1.5c0.537,0 2.688,-1.573 4.781,-3.495c2.093,-1.923 4.331,-3.498 4.973,-3.5c0.641,-0.003 1.316,-0.406 1.5,-0.896c0.469,-1.256 10.574,-9.109 11.72,-9.109c0.521,0 1.096,-0.401 1.28,-0.891c0.352,-0.941 10.438,-9.109 11.248,-9.109c0.261,0 2.186,-1.573 4.279,-3.495c2.093,-1.923 4.369,-3.498 5.056,-3.5c0.688,-0.003 1.25,-0.469 1.25,-1.036c0,-0.568 0.722,-1.309 1.605,-1.648c0.883,-0.339 3.22,-2.095 5.193,-3.902c6.854,-6.28 7.202,-5.893 7.202,8.008c0,6.732 0.277,12.516 0.615,12.854c0.338,0.338 1.619,-0.043 2.846,-0.848c2.619,-1.716 22.539,-8.56 22.539,-7.744c0,0.306 0.563,0.103 1.25,-0.451c1.138,-0.917 5.031,-2.006 10.25,-2.868c1.1,-0.182 5.15,-0.983 9,-1.78c3.85,-0.798 8.688,-1.727 10.75,-2.066l3.75,-0.615l0.057,-28.704l0.057,-28.705l4.924,-3.75c2.708,-2.063 5.344,-3.75 5.859,-3.75c0.515,0 1.086,-0.401 1.27,-0.891c0.352,-0.941 10.438,-9.109 11.248,-9.109c0.261,0 2.186,-1.573 4.279,-3.495c2.093,-1.923 4.369,-3.498 5.056,-3.5c0.688,-0.003 1.25,-0.469 1.25,-1.036c0,-0.568 0.722,-1.309 1.605,-1.648c0.883,-0.339 3.246,-2.122 5.25,-3.964c2.005,-1.841 4.17,-3.35 4.812,-3.352c0.641,-0.003 1.316,-0.406 1.5,-0.896c0.469,-1.256 10.574,-9.109 11.72,-9.109c0.521,0 1.096,-0.401 1.28,-0.891c0.352,-0.941 10.438,-9.109 11.248,-9.109c0.261,0 2.186,-1.573 4.279,-3.495c2.093,-1.923 4.369,-3.498 5.056,-3.5c0.688,-0.003 1.25,-0.469 1.25,-1.036c0,-0.568 0.722,-1.309 1.605,-1.648c0.883,-0.339 3.246,-2.122 5.25,-3.964c2.005,-1.841 4.17,-3.35 4.812,-3.352c0.641,-0.003 1.316,-0.417 1.5,-0.92c0.183,-0.503 3.838,-3.596 8.122,-6.874c10.759,-8.23 20.395,-17.737 25.663,-25.318c2.444,-3.516 4.842,-6.668 5.331,-7.005c0.488,-0.336 0.843,-0.902 0.789,-1.257c-0.054,-0.354 1.035,-2.882 2.421,-5.617c1.385,-2.734 3.451,-7.569 4.591,-10.743c1.139,-3.174 2.329,-6.446 2.644,-7.271c3.157,-8.254 4.858,-34.28 2.975,-45.5c-0.587,-3.5 -1.195,-6.444 -2.064,-10c-0.135,-0.55 -1.103,-3.475 -2.151,-6.5c-1.048,-3.025 -1.947,-5.725 -1.997,-6c-0.05,-0.275 -2.09,-4.325 -4.532,-9c-2.443,-4.675 -4.625,-8.95 -4.85,-9.5c-0.225,-0.55 -0.68,-1.225 -1.011,-1.5c-0.331,-0.275 -3.301,-3.875 -6.6,-7.999c-3.299,-4.125 -7.123,-8.395 -8.498,-9.491c-1.375,-1.095 -3.533,-3.007 -4.795,-4.25c-1.263,-1.243 -2.74,-2.26 -3.282,-2.26c-0.542,0 -1.245,-0.675 -1.561,-1.5c-0.317,-0.825 -0.987,-1.5 -1.49,-1.5c-0.826,0 -8.656,-4.751 -9.872,-5.991c-0.756,-0.769 -8.493,-4.267 -8.544,-3.862c-0.024,0.194 -1.149,-0.348 -2.5,-1.204c-2.128,-1.349 -9.042,-3.822 -12.623,-4.516c-0.642,-0.124 -3.567,-0.762 -6.5,-1.417c-2.933,-0.656 -7.583,-1.38 -10.333,-1.611c-2.75,-0.231 -6.618,-0.634 -8.596,-0.896c-1.978,-0.263 -3.778,-0.312 -4,-0.111M1045.00976,63.21382c1.65,0.331 5.7,1.926 9,3.543c8.895,4.359 16.027,11.7 20.405,21.002c2.335,4.961 2.589,6.677 2.592,17.5c0.003,11.504 -0.132,12.281 -3.266,18.793c-3.608,7.498 -9.529,14.514 -15.102,17.896c-1.996,1.211 -3.989,2.788 -4.429,3.506c-0.44,0.718 -1.202,1.305 -1.694,1.305c-0.492,0 -2.607,1.573 -4.7,3.495c-2.093,1.923 -4.32,3.498 -4.949,3.5c-0.629,0.003 -1.402,0.68 -1.719,1.505c-0.316,0.825 -1.014,1.5 -1.551,1.5c-0.537,0 -2.688,1.573 -4.781,3.495c-2.093,1.923 -4.331,3.498 -4.973,3.5c-0.641,0.003 -1.316,0.406 -1.5,0.896c-0.489,1.308 -10.598,9.109 -11.804,9.109c-0.566,0 -1.029,0.389 -1.029,0.864c0,0.475 -1.913,2.161 -4.25,3.747c-2.337,1.586 -4.61,3.447 -5.05,4.136c-0.44,0.689 -1.199,1.253 -1.688,1.253c-0.489,0 -2.367,1.35 -4.173,3c-1.807,1.65 -3.859,3 -4.562,3c-0.702,0 -1.277,0.434 -1.277,0.965c0,0.53 -0.788,1.386 -1.75,1.901c-1.656,0.886 -1.741,-1.572 -1.582,-45.839c0.093,-25.727 0.444,-48.52 0.779,-50.651c1.592,-10.103 13.18,-26.24 20.087,-27.974c1.356,-0.34 2.466,-1.095 2.466,-1.677c0,-0.582 0.296,-0.762 0.658,-0.4c0.362,0.362 1.216,0.195 1.898,-0.371c0.682,-0.566 2.073,-1.231 3.092,-1.476c1.019,-0.246 3.427,-0.832 5.352,-1.301c3.681,-0.899 14.412,-0.746 19.5,0.278" id="CompoundPath 1" fill="#ffffff"/><g id="Group 1"><path d="M1056.2399,8.87914c8.722,1.906 24.683,7.624 24.683,8.842c0,0.392 1.462,1.561 3.25,2.599c9.179,5.331 22.441,17.527 28.864,26.544c1.764,2.475 3.534,4.725 3.934,5c1.895,1.303 8.059,14.388 10.363,22c3.295,10.888 4.317,17.9 4.51,30.967c0.03458,2.33603 -0.01185,4.66264 -0.13854,6.97762l-99.44058,57.41204c18.46869,-13.71037 31.3468,-24.03258 37.28512,-29.90766c12.311,-12.181 16.858,-26.48 13.977,-43.949c-2.895,-17.554 -19.099,-34.929 -36.443,-39.075l-25.161,-0.767c-3.758,1.254 -4.5,1.455 -4.5,1.221c0,-0.138 -3.269,1.467 -7.264,3.566c-12.69,6.668 -22.645,19.749 -25.189,33.095c-0.783,4.113 -1.044,22.447 -0.841,59.149l0.24496,44.3175l-48.87386,28.21734l0.1789,-34.02884c0.515,-97.798 0.678,-103.798 3.073,-112.565c4.697,-17.192 17.246,-36.864 30.43,-47.704c3.433,-2.821 7.257,-5.984 8.499,-7.028c1.241,-1.044 2.704,-1.898 3.25,-1.898c0.545,0 0.992,-0.395 0.992,-0.879c0,-0.483 1.462,-1.476 3.25,-2.207c1.788,-0.731 3.805,-1.872 4.484,-2.534c1.54,-1.504 14.851,-5.978 23.366,-7.855z" id="Path 1" fill="#e6ad00"/><g id="Group 1"><path d="M1111.28214,168.37695c-5.559,7.491 -9.373,10.635 -63.847,52.629c-31.864,24.564 -59.165,45.956 -60.668,47.537l-2.732,2.874l-0.268,25.844l-0.267,25.843l-11.5,2.363c-6.325,1.3 -16.675,4.042 -23,6.093c-6.325,2.052 -12.062,3.888 -12.75,4.081c-0.923,0.258 -1.25,-1.686 -1.25,-7.426c0,-7.391 -0.158,-7.939 -3.196,-11.073c-1.758,-1.814 -3.575,-3.298 -4.038,-3.298c-1.346,0 -74.459,56.636 -83.173,64.429c-4.349,3.889 -11.927,11.571 -16.84,17.071c-21.055,23.571 -34.745,50.894 -40.957,81.745c-1.923,9.548 -2.263,14.364 -2.243,31.755c0.01942,16.26662 0.71403,26.65748 3.34965,37.99082l-43.54234,25.13918c-13.27134,-44.42639 -11.61945,-96.43934 4.85669,-141.63c9.915,-27.196 26.832,-55.353 45.662,-76c8.834,-9.686 18.635,-17.67 75.858,-61.788c31.769,-24.494 59.338,-46.175 61.263,-48.179l3.5,-3.644l0.08194,-15.58579l48.86397,-28.21162l0.05409,9.78641l10.5,-8.464c5.775,-4.656 16.8,-13.041 24.5,-18.633c6.64017,-4.82279 12.74252,-9.32497 18.26339,-13.47228l94.0663,-54.3092c-0.91313,20.18846 -7.92224,39.51759 -20.54769,56.53348zM1022.50014,403.52895c-8.8,0.011 -19.375,0.552 -23.5,1.204c-6.68,1.055 -7.937,1.619 -11.499,5.161l-3.998,3.976l-0.00063,20.03527l-48.05602,27.74516l-0.19135,-14.96043l-3.877,-3.995l-3.878,-3.994l-4.927,5.322c-10.78522,11.64856 -19.05822,25.36476 -23.33045,38.5297l-51.66675,29.82981c-0.48847,-5.7007 -0.33056,-9.82409 0.38321,-17.42452c3.043,-32.392 15.886,-62.367 37.1,-86.588c14.965,-17.088 40.629,-33.239 67.588,-42.535c37.059,-12.778 84.364,-14.457 117.473,-4.169c9.32,2.896 20.224,7.122 20.843,8.079c0.14227,0.2204 0.74323,0.65782 1.60498,1.19121l-56.91823,32.86176c-3.33301,-0.23864 -7.24263,-0.27579 -13.14975,-0.26897z" id="CompoundPath 1" fill="#1536a1"/><g id="Group 1"><path d="M796.86866,574.18947c8.362,22.393 36.772,57.086 36.772,57.086c0,0 26.167,23.475 33.021,26.992c1.65,0.847 4.35,2.343 6,3.326c10.371,6.178 33.547,15.303 48.5,19.095c11.69715,2.96684 24.74429,4.33746 38.15742,4.18195l-66.05252,38.13544c-12.81011,-3.77547 -24.1049,-7.9621 -24.1049,-9.41539c0,-0.477 -0.632,-0.868 -1.404,-0.868c-2.412,0 -17.594,-8.271 -29.596,-16.124c-29.578,-19.352 -51.036,-41.543 -70.469,-72.876c-8.341,-13.448 -12.991,-23.164 -19.384,-40.5c-1.31284,-3.55997 -2.52334,-7.18048 -3.63158,-10.85337l43.51263,-25.12203c1.84278,7.76566 4.60113,16.02131 8.67895,26.9424zM1113.57866,594.30647c0.321,0.229 0.38,0.138 0.133,-0.201c-0.248,-0.339 1.72,-4.952 4.373,-10.25c11.5,-22.968 17.349,-46.825 17.439,-71.133c0.048,-13.153 -0.486,-16.034 -6.482,-34.939c-5.457,-17.208 -15.748,-32.368 -32.054,-47.222c-12.994,-11.838 -27.493,-19.487 -45.393,-23.949c-6.67443,-1.66398 -10.33364,-2.47501 -14.85911,-2.86341l56.5066,-32.6241c0.84367,0.50045 1.86263,1.05829 2.91951,1.58951c17.369,8.724 43.488,31.002 55.114,47.008c18.111,24.936 25.013,40.239 29.765,66c2.877,15.596 2.923,34.701 0.136,56.327c-0.70257,5.45065 -1.63865,10.90717 -2.795,16.34511l-67.6509,39.05827c1.53669,-2.02993 2.65103,-3.28744 2.8479,-3.14638zM983.66266,477.73647l-0.001,63.987l-5,1.743c-7.289,2.541 -23.624,2.438 -28.903,-0.181c-4.932,-2.447 -10.2,-7.677 -11.949,-11.863c-1.026,-2.456 -1.475,-13.015 -1.871,-44.043l-0.32295,-25.24884l48.0483,-27.7407zM897.95066,487.50547c-3.017,12.19 -2.986,27.025 0.078,37.217c4.892,16.271 6.319,19.08 13.633,26.85c10.652,11.316 17.751,16.2 29.049,19.988c20.785,6.97 34.346,6.901 49.78,-0.25c2.844,-1.317 6.621,-2.938 8.393,-3.602c3.751,-1.403 17.731,-15.631 18.782,-19.114c0.393,-1.305 1.963,-5.072 3.488,-8.372c1.525,-3.3 3.33,-8.399 4.01,-11.331c2.51,-10.824 15.242,-19.367 26.551,-17.817c5.645,0.774 13.004,5.88 16.564,11.494c4.018,6.336 3.985,14.459 -0.111,27.281c-1.647,5.155 -2.997,9.865 -3,10.467c-0.003,0.601 -1.742,3.751 -3.864,7c-2.122,3.248 -5.065,8.042 -6.54,10.652c-3.985,7.053 -11.536,15.711 -18.576,21.3c-3.432,2.725 -7.655,6.245 -9.383,7.823c-5.771,5.267 -26.738,13.785 -37.464,15.22c-2.574,0.344 -5.016,0.829 -5.429,1.077c-0.413,0.249 -0.75,6.93 -0.75,14.848v14.395l-3.75,0.796c-4.221,0.895 -41.775,1.103 -42.643,0.236c-0.307,-0.308 -0.603,-8.03 -0.657,-17.16l-0.099,-16.602l-2.675,-0.686c-1.472,-0.378 -3.708,-0.88 -4.969,-1.117c-2.886,-0.542 -16.1,-5.771 -21.343,-8.445c-5.64,-2.878 -22.37,-16.544 -28.928,-23.631c-5.538,-5.984 -15.936,-20.422 -15.936,-22.126c0,-0.492 -1.031,-2.42 -2.291,-4.284c-4.871,-7.205 -8.898,-21.457 -11.308,-40.02c-0.33594,-2.58824 -0.59277,-4.77305 -0.7741,-6.75481l51.37858,-29.66344c-0.45535,1.45226 -0.86152,2.89719 -1.21649,4.33125z" id="CompoundPath 1" fill="#e6ad00"/><path d="M1020.56929,673.19694c32.919,-12.57 65.368,-39.145 87.428,-71.601c2.14651,-3.15825 4.14819,-5.8202 5.25918,-7.04259l1.04508,-0.60338c0.0972,0.04464 0.13415,0.02168 0.10625,-0.06134l64.83527,-37.43266c-9.91357,48.31927 -37.29216,95.34835 -72.84978,123.97296c-30.927,24.897 -64.698,40.667 -102.679,47.948c-10.376,1.99 -11.866,2.551 -15.25,5.748l-3.75,3.543v54.637c0,61.788 -0.023,62.012 -7.985,78.308c-7.58,15.517 -16.283,24.135 -32.515,32.198c-12.885,6.401 -22.362,8.653 -37,8.795c-34.844,0.337 -62.176,-16.684 -74.068,-46.127c-10.197,-25.244 -8.118,-54.297 5.53,-77.27c3.42,-5.756 4.685,-6.99 9.25,-9.026c7.845,-3.499 18.354,-3.371 25.861,0.316c4.774,2.345 5.921,3.481 8,7.926c1.951,4.171 2.422,6.772 2.402,13.263c-0.025,8.295 -0.72,10.477 -6.713,21.074c-3.39,5.995 -3.209,16.388 0.392,22.514c3.335,5.673 12.159,14.085 17.785,16.955c5.037,2.57 12.715,3.008 18.561,1.059c4.322,-1.44 17.656,-13.535 20.096,-18.228c1.153,-2.217 1.404,-11.985 1.404,-54.547v-51.847l-3.75,-3.609c-3.411,-3.282 -4.766,-3.801 -14.977,-5.729c-7.18984,-1.35761 -16.33051,-3.72975 -24.65413,-6.22645l65.26691,-37.68187c21.24096,0.02749 43.54633,-3.80777 62.96922,-11.22468z" id="Path 1" fill="#1536a1"/></g></g></g></g></g></svg>