<svg version="1.1" xmlns="http://www.w3.org/2000/svg" xmlns:xlink="http://www.w3.org/1999/xlink" width="536.19768" height="918.94566" viewBox="732.82791,-12.48526,536.19768,918.94566"><g fill="none" fill-rule="none" stroke="none" stroke-width="1" stroke-linecap="none" stroke-linejoin="none" stroke-miterlimit="10" stroke-dasharray="" stroke-dashoffset="0" font-family="none" font-weight="none" font-size="none" text-anchor="none" style="mix-blend-mode: normal"><g id="Group 1"><path d="M1036.17708,-12.36161c-0.222,0.202 -3.779,0.635 -7.904,0.963c-9.518,0.757 -11.262,1.114 -21.274,4.358c-4.524,1.466 -8.451,2.721 -8.726,2.788c-1.655,0.405 -12.724,6.21 -13.821,7.249c-0.727,0.687 -1.759,1.25 -2.294,1.25c-0.535,0 -2.186,1.125 -3.668,2.5c-1.483,1.375 -3.023,2.5 -3.422,2.5c-1.43,0 -20.795,19.195 -20.795,20.612c0,0.287 -1.071,1.954 -2.381,3.705c-3.026,4.047 -10.702,17.683 -9.953,17.683c0.31,0 -0.076,1.013 -0.858,2.25c-1.478,2.339 -3.822,9.306 -5.132,15.25c-0.371,1.684 -1.611,8.435 -2.205,12c-0.091,0.55 -0.235,34.081 -0.319,74.513l-0.152,73.513l-5.425,4.237c-2.983,2.33 -5.658,4.237 -5.944,4.237c-0.286,0 -2.232,1.573 -4.325,3.495c-2.093,1.923 -4.368,3.498 -5.056,3.5c-0.687,0.003 -1.25,0.469 -1.25,1.036c0,0.568 -0.722,1.309 -1.605,1.648c-0.883,0.339 -3.246,2.122 -5.25,3.964c-2.005,1.841 -4.17,3.35 -4.812,3.352c-0.641,0.003 -1.316,0.406 -1.5,0.896c-0.469,1.256 -10.574,9.109 -11.72,9.109c-0.521,0 -1.096,0.401 -1.28,0.891c-0.489,1.308 -10.598,9.109 -11.804,9.109c-0.566,0 -1.029,0.343 -1.029,0.763c0,0.775 -10.416,9.237 -11.369,9.237c-0.286,0 -2.232,1.573 -4.325,3.495c-2.093,1.923 -4.32,3.498 -4.949,3.5c-0.629,0.003 -1.402,0.68 -1.719,1.505c-0.316,0.825 -1.014,1.5 -1.551,1.5c-0.537,0 -2.688,1.573 -4.781,3.495c-2.093,1.923 -4.331,3.498 -4.973,3.5c-0.641,0.003 -1.316,0.406 -1.5,0.896c-0.489,1.308 -10.598,9.109 -11.804,9.109c-0.566,0 -1.029,0.364 -1.029,0.808c0,0.445 -1.808,2.132 -4.017,3.75c-6.862,5.024 -23.35,20.691 -29.483,28.014c-2.2,2.627 -5.013,5.843 -6.25,7.148c-1.237,1.304 -2.25,2.7 -2.25,3.103c0,0.402 -1.237,2.121 -2.75,3.821c-1.512,1.699 -3.293,3.937 -3.956,4.972c-0.663,1.036 -3.336,5.259 -5.94,9.384c-2.604,4.125 -4.999,7.725 -5.322,8c-0.323,0.275 -1.431,2.413 -2.461,4.75c-1.031,2.337 -2.283,4.25 -2.782,4.25c-0.499,0 -0.629,0.45 -0.289,1c0.34,0.55 0.115,1 -0.5,1c-0.615,0 -0.864,0.412 -0.553,0.915c0.311,0.503 0.108,1.067 -0.451,1.253c-0.559,0.186 -1.2,1.297 -1.426,2.469c-0.226,1.171 -1.298,3.869 -2.383,5.996c-1.085,2.127 -1.945,4.092 -1.911,4.367c0.034,0.275 -0.555,1.625 -1.309,3c-0.754,1.375 -1.46,2.95 -1.57,3.5c-0.109,0.55 -0.768,2.35 -1.464,4c-0.696,1.65 -1.359,3.337 -1.474,3.75c-0.115,0.413 -0.322,0.975 -0.459,1.25c-0.137,0.275 -0.363,0.95 -0.5,1.5c-0.137,0.55 -0.363,1.225 -0.5,1.5c-0.137,0.275 -0.363,0.95 -0.5,1.5c-0.137,0.55 -0.34,1.113 -0.449,1.25c-0.11,0.137 -0.396,1.375 -0.637,2.75c-0.24,1.375 -0.725,3.175 -1.077,4c-1.051,2.465 -2.194,6.931 -2.815,11c-0.21,1.375 -0.903,4.75 -1.541,7.5c-1.363,5.884 -1.684,7.982 -2.448,16c-0.314,3.3 -0.987,10.05 -1.495,15c-1.027,10.003 -0.351,29.118 1.405,39.732c0.298,1.797 0.809,5.518 1.136,8.268c0.327,2.75 0.792,6.011 1.032,7.247c0.241,1.236 0.633,3.261 0.871,4.5c0.239,1.239 1.308,5.516 2.376,9.503c1.069,3.987 1.707,7.25 1.42,7.25c-0.288,0 -0.076,0.563 0.469,1.25c0.546,0.688 1.556,3.05 2.245,5.25c4.099,13.086 17.328,42.586 20.758,46.292c0.688,0.743 1.25,1.956 1.25,2.696c0,0.74 0.369,1.495 0.819,1.679c1.105,0.449 9.181,12.476 9.181,13.671c0,0.521 0.675,1.207 1.5,1.524c0.825,0.316 1.5,1.264 1.5,2.107c0,0.842 0.354,1.531 0.786,1.531c0.432,0 2.246,1.913 4.03,4.25c9.615,12.599 19.747,22.843 34.539,34.919c1.57,1.282 3.708,3.119 4.75,4.081c1.042,0.963 2.237,1.75 2.655,1.75c0.418,0 1.881,1.012 3.25,2.25c1.37,1.237 3.72,2.884 5.223,3.66c1.503,0.775 3.541,2.125 4.527,3c0.987,0.874 3.549,2.49 5.694,3.59c2.144,1.1 4.385,2.45 4.978,3c1.125,1.042 20.318,10.684 22.068,11.087c0.55,0.126 2.8,0.999 5,1.94c6.327,2.706 8.962,3.796 9.5,3.93c0.99,0.247 11.534,3.711 13,4.271c0.825,0.315 2.377,0.741 3.448,0.946c1.072,0.206 4.447,1.009 7.5,1.786c3.054,0.777 8.477,1.901 12.052,2.499c3.575,0.598 7.512,1.31 8.75,1.583l2.25,0.496v51.531c0,56.88 0.283,54.215 -6.467,60.964c-3.255,3.255 -9.533,7.121 -9.533,5.87c0,-0.356 -0.579,-0.167 -1.287,0.42c-1.657,1.375 -13.158,0.882 -14.995,-0.642c-0.771,-0.64 -1.698,-0.868 -2.06,-0.506c-0.362,0.362 -0.658,0.133 -0.658,-0.508c0,-0.642 -0.469,-1.167 -1.042,-1.167c-1.952,0 -7.528,-5.356 -9.508,-9.133c-2.557,-4.878 -3.591,-16.231 -1.747,-19.182c0.407,-0.652 0.841,-1.852 0.964,-2.667c0.123,-0.815 0.699,-1.64 1.279,-1.833c0.579,-0.193 1.054,-0.989 1.054,-1.768c0,-0.78 0.398,-1.417 0.883,-1.417c0.486,0 1.213,-1.013 1.616,-2.25c0.403,-1.237 0.821,-2.475 0.929,-2.75c0.108,-0.275 0.718,-2.975 1.355,-6c2.225,-10.565 -0.602,-19.874 -8.283,-27.277c-6.963,-6.711 -13.23,-9.1 -23,-8.767c-16.33,0.557 -26.19,11.086 -36.096,38.544c-0.397,1.1 -0.667,2.287 -0.6,2.637c0.066,0.351 -0.359,2.151 -0.946,4c-1.307,4.119 -1.883,27.412 -0.763,30.863c0.446,1.375 1.018,3.85 1.271,5.5c0.253,1.65 1.213,5.025 2.133,7.5c0.921,2.475 1.782,4.95 1.914,5.5c0.338,1.414 4.929,10.798 5.87,12c0.43,0.55 2.882,3.873 5.448,7.385c6.516,8.917 17.937,19.143 25.019,22.401c1.238,0.569 2.25,1.439 2.25,1.934c0,0.494 0.45,0.62 1,0.28c0.55,-0.34 1,-0.115 1,0.5c0,0.615 0.45,0.84 1,0.5c0.55,-0.34 1,-0.141 1,0.441c0,0.582 0.338,0.956 0.75,0.829c0.412,-0.126 2.775,0.623 5.25,1.665c2.475,1.041 4.95,1.996 5.5,2.121c18.939,4.296 34.056,4.809 45.25,1.534c1.788,-0.523 3.25,-0.702 3.25,-0.398c0,0.304 0.562,0.11 1.25,-0.432c1.041,-0.819 2.811,-1.442 7.75,-2.727c1.521,-0.396 13.053,-6.721 16.294,-8.938c2.087,-1.427 3.979,-2.595 4.205,-2.595c0.226,0 1.443,-1.026 2.706,-2.28c1.262,-1.254 3.212,-2.941 4.332,-3.75c1.121,-0.808 4.04,-4.057 6.487,-7.22c2.447,-3.163 4.793,-5.75 5.213,-5.75c0.42,0 0.763,-0.675 0.763,-1.5c0,-0.825 0.45,-1.5 1,-1.5c0.55,0 1,-0.643 1,-1.429c0,-0.785 0.707,-2.135 1.571,-3c0.865,-0.864 1.202,-1.578 0.75,-1.586c-0.451,-0.009 -0.248,-0.379 0.452,-0.824c0.701,-0.444 1.457,-1.758 1.681,-2.92c0.223,-1.161 0.978,-3.153 1.677,-4.426c0.699,-1.273 1.415,-3.18 1.59,-4.237c0.175,-1.056 0.815,-2.519 1.421,-3.25c0.607,-0.73 0.854,-1.328 0.55,-1.328c-0.304,0 -0.126,-1.463 0.395,-3.25c0.548,-1.882 0.934,-26.932 0.915,-59.5c-0.017,-30.937 0.312,-56.32 0.733,-56.407c0.421,-0.086 1.89,-0.28 3.265,-0.431c2.252,-0.247 5.762,-0.831 11.5,-1.913c1.1,-0.208 3.545,-0.847 5.434,-1.421c1.888,-0.574 3.647,-0.83 3.908,-0.57c0.261,0.261 0.965,0.087 1.566,-0.386c0.875,-0.689 5.931,-2.147 12.842,-3.703c0.413,-0.093 0.975,-0.281 1.25,-0.419c0.275,-0.138 0.95,-0.362 1.5,-0.5c0.55,-0.138 1.225,-0.362 1.5,-0.5c0.275,-0.138 0.837,-0.344 1.25,-0.459c0.413,-0.115 2.1,-0.778 3.75,-1.474c1.65,-0.696 3.45,-1.355 4,-1.464c0.55,-0.11 1.9,-0.696 3,-1.302c1.1,-0.607 2.342,-1.139 2.76,-1.182c0.419,-0.043 2.102,-0.772 3.74,-1.619c1.638,-0.847 3.321,-1.591 3.74,-1.653c1.144,-0.169 13.685,-6.26 14.26,-6.926c0.275,-0.319 2.975,-1.894 6,-3.5c3.025,-1.607 5.725,-3.176 6,-3.487c0.849,-0.961 9.827,-6.934 10.423,-6.934c0.309,0 1.578,-0.86 2.819,-1.912c1.242,-1.051 5.408,-4.445 9.258,-7.541c7.274,-5.849 26.776,-24.857 32,-31.189c1.65,-2 3.709,-4.396 4.576,-5.324c0.867,-0.928 1.866,-2.44 2.219,-3.36c0.353,-0.921 1.106,-1.674 1.674,-1.674c0.567,0 1.031,-0.567 1.031,-1.26c0,-0.693 1.125,-2.474 2.5,-3.957c1.375,-1.482 2.5,-3.165 2.5,-3.739c0,-0.574 0.45,-1.044 1,-1.044c0.55,0 1,-0.637 1,-1.417c0,-0.779 0.337,-1.566 0.75,-1.75c0.413,-0.183 1.866,-2.47 3.229,-5.083c1.364,-2.612 2.826,-4.75 3.25,-4.75c0.424,0 0.771,-0.42 0.771,-0.933c0,-0.513 3.113,-7.282 6.918,-15.041c3.804,-7.758 6.95,-14.426 6.989,-14.816c0.039,-0.391 0.587,-2.06 1.218,-3.71c0.63,-1.65 1.319,-3.865 1.53,-4.922c0.212,-1.056 0.881,-2.519 1.487,-3.25c0.607,-0.73 0.768,-1.328 0.358,-1.328c-0.41,0 -0.185,-0.675 0.5,-1.5c0.685,-0.825 0.976,-1.5 0.647,-1.5c-0.329,0 -0.117,-1.237 0.47,-2.75c0.587,-1.513 1.272,-3.875 1.522,-5.25c0.251,-1.375 0.955,-4.3 1.565,-6.5c0.61,-2.2 1.235,-4.675 1.39,-5.5c0.154,-0.825 0.488,-2.625 0.742,-4c0.255,-1.375 0.763,-4.975 1.129,-8c0.367,-3.025 0.859,-6.091 1.094,-6.814c0.637,-1.958 1.933,-20.87 1.864,-27.186c-0.051,-4.606 -0.908,-13.811 -1.863,-20c-0.609,-3.947 -2.885,-14.052 -4.251,-18.872c-0.837,-2.954 -1.664,-6.104 -1.839,-7c-0.174,-0.895 -0.408,-1.741 -0.518,-1.878c-0.111,-0.137 -0.296,-0.587 -0.411,-1c-0.115,-0.413 -0.778,-2.1 -1.474,-3.75c-0.696,-1.65 -1.358,-3.45 -1.471,-4c-0.113,-0.55 -0.977,-2.458 -1.921,-4.24c-0.943,-1.781 -1.711,-3.466 -1.706,-3.744c0.02,-1.029 -4.509,-10.059 -5.653,-11.272c-0.652,-0.691 -1.5,-2.266 -1.885,-3.5c-0.385,-1.234 -1.007,-2.469 -1.382,-2.744c-1.302,-0.956 -7.049,-9.867 -7.049,-10.93c0,-0.589 -0.464,-1.07 -1.031,-1.07c-0.568,0 -1.321,-0.753 -1.674,-1.674c-0.907,-2.362 -2.055,-3.627 -15.525,-17.096c-13.746,-13.747 -15.382,-15.23 -16.801,-15.23c-0.568,0 -1.291,-0.675 -1.607,-1.5c-0.317,-0.825 -0.997,-1.5 -1.512,-1.5c-0.514,0 -3.286,-1.736 -6.158,-3.858c-2.872,-2.122 -6.225,-4.177 -7.451,-4.566c-1.226,-0.389 -2.794,-1.24 -3.485,-1.892c-1.141,-1.075 -14.57,-7.855 -15.756,-7.953c-0.275,-0.023 -2.075,-0.7 -4,-1.505c-1.925,-0.805 -4.625,-1.935 -6,-2.511c-2.915,-1.221 -2.522,-1.101 -7,-2.139c-1.925,-0.446 -3.95,-1.083 -4.5,-1.415c-1.075,-0.65 -2.382,-0.965 -6.854,-1.653c-1.57,-0.242 -3.752,-0.724 -4.85,-1.073c-1.097,-0.348 -3.188,-0.798 -4.646,-0.999c-1.457,-0.202 -4.9,-0.673 -7.65,-1.047c-6.187,-0.843 -36.036,-0.825 -43.5,0.027c-11.236,1.281 -15.793,1.946 -21.747,3.171c-1.236,0.254 -3.261,0.652 -4.5,0.884c-4.101,0.767 -8.281,1.856 -10.753,2.8c-2.004,0.765 -15.366,5.128 -16,5.224c-0.275,0.042 -1.625,0.698 -3,1.459c-1.375,0.761 -2.611,1.31 -2.747,1.22c-0.49,-0.324 -19.772,9.355 -21.069,10.576c-0.73,0.688 -1.764,1.25 -2.297,1.25c-0.534,0 -1.859,0.828 -2.946,1.84c-1.086,1.012 -3.205,2.474 -4.708,3.248c-1.503,0.775 -3.093,1.972 -3.533,2.66c-0.44,0.689 -1.452,1.252 -2.25,1.252c-0.797,0 -1.45,0.346 -1.45,0.77c0,0.423 -2.307,2.561 -5.126,4.75c-5.643,4.382 -13.463,12.076 -18.874,18.572c-1.925,2.311 -4.287,5.036 -5.25,6.055c-0.962,1.019 -1.75,2.195 -1.75,2.613c0,0.418 -1.125,1.974 -2.5,3.457c-1.375,1.482 -2.5,3.128 -2.5,3.656c0,0.528 -0.337,1.11 -0.75,1.294c-0.412,0.183 -2.1,2.919 -3.75,6.08c-1.65,3.16 -3.364,5.748 -3.809,5.75c-0.445,0.001 -0.531,0.453 -0.191,1.003c0.34,0.55 0.115,1 -0.5,1c-0.615,0 -0.84,0.45 -0.5,1c0.34,0.55 0.115,1 -0.5,1c-0.615,0 -0.84,0.45 -0.5,1c0.34,0.55 0.066,1 -0.608,1c-0.674,0 -0.943,0.282 -0.599,0.627c0.345,0.345 -0.039,1.915 -0.853,3.489c-0.814,1.575 -1.516,3.205 -1.559,3.624c-0.043,0.418 -0.574,1.66 -1.181,2.76c-0.606,1.1 -1.225,2.726 -1.374,3.614c-0.15,0.887 -0.803,2.912 -1.452,4.5c-0.649,1.587 -1.347,3.763 -1.551,4.834c-0.204,1.072 -1.082,4.672 -1.951,8c-0.869,3.329 -1.716,7.177 -1.883,8.552c-1.962,16.209 -2.239,25.287 -1.088,35.674c0.792,7.144 0.863,7.528 3.091,16.826c0.923,3.85 1.83,7.675 2.017,8.5c0.186,0.825 0.429,1.612 0.539,1.75c0.111,0.138 0.296,0.587 0.411,1c0.115,0.413 0.778,2.1 1.474,3.75c0.696,1.65 1.366,3.45 1.49,4c0.442,1.972 7.103,15.027 8.327,16.321c0.688,0.727 1.25,1.965 1.25,2.75c0,0.786 0.45,1.429 1,1.429c0.55,0 1,0.675 1,1.5c0,0.825 0.374,1.5 0.83,1.5c0.457,0 2.232,1.913 3.945,4.25c3.66,4.995 21.407,22.75 22.74,22.75c0.523,0 11.567,7.074 12.485,7.997c0.64,0.644 10.177,5.275 11.5,5.585c0.55,0.129 2.8,1.036 5,2.015c2.2,0.98 4.338,1.865 4.75,1.967c0.412,0.102 0.975,0.298 1.25,0.436c0.631,0.316 2.209,0.713 3.476,0.875c0.581,0.074 1.088,7.104 1.25,17.335l0.274,17.21l3.5,0.753c8.793,1.893 30.15,2.689 38.5,1.435c1.1,-0.165 4.7,-0.684 8,-1.153c3.3,-0.469 6.337,-0.932 6.75,-1.029c0.413,-0.097 1.673,-0.232 2.8,-0.301c1.985,-0.121 2.041,-0.606 1.75,-15.126c-0.23,-11.496 -0.008,-15.002 0.95,-15c1.986,0.002 2.036,-0.012 5.727,-1.554c1.932,-0.807 3.741,-1.463 4.018,-1.456c0.278,0.006 0.73,-0.045 1.005,-0.114c0.275,-0.069 0.837,-0.209 1.25,-0.311c0.413,-0.102 2.492,-0.946 4.622,-1.875c2.13,-0.929 4.155,-1.688 4.5,-1.686c0.751,0.003 9.413,-4.284 10.128,-5.012c0.948,-0.966 8.958,-5.991 9.55,-5.991c0.326,0 1.189,-0.563 1.917,-1.25c0.728,-0.687 2.742,-2.375 4.474,-3.75c6.074,-4.82 14.261,-13.568 19.652,-21c2.993,-4.125 5.778,-7.95 6.189,-8.5c0.412,-0.55 2.609,-5.05 4.884,-10c8.779,-19.105 11.072,-32.978 7.07,-42.765c-1.178,-2.879 -2.541,-5.512 -3.029,-5.85c-0.488,-0.338 -1.41,-1.657 -2.047,-2.932c-1.738,-3.47 -15.33,-10.178 -20.758,-10.243c-6.396,-0.077 -11.969,0.59 -12.531,1.499c-0.269,0.435 -1.17,0.791 -2.001,0.791c-0.832,0 -2.143,0.563 -2.914,1.25c-0.771,0.688 -3.132,2.593 -5.247,4.234c-3.35,2.599 -9.02,11.648 -9.838,15.697c-1.189,5.892 -1.561,7.312 -2.158,8.249c-0.375,0.588 -0.694,1.295 -0.709,1.57c-0.086,1.591 -2.887,7 -3.625,7c-0.484,0 -0.879,0.675 -0.879,1.5c0,0.825 -0.45,1.5 -1,1.5c-0.55,0 -1,0.63 -1,1.4c0,1.715 -10.453,11.41 -13.957,12.946c-1.399,0.612 -2.813,1.49 -3.143,1.95c-0.33,0.46 -1.23,0.932 -2,1.049c-0.77,0.116 -2.003,0.587 -2.739,1.047c-5.013,3.129 -26.845,4.493 -35.161,2.196c-1.375,-0.38 -3.593,-0.916 -4.93,-1.191c-1.336,-0.276 -2.911,-0.808 -3.5,-1.184c-0.588,-0.375 -1.31,-0.689 -1.602,-0.698c-1.49,-0.043 -8.968,-3.935 -8.968,-4.667c0,-0.466 -0.59,-0.848 -1.311,-0.848c-0.722,0 -2.278,-0.9 -3.459,-2c-1.18,-1.1 -2.575,-2 -3.1,-2c-0.524,0 -3.701,-2.999 -7.06,-6.665c-5.754,-6.279 -11.561,-16.057 -12.525,-21.089c-0.237,-1.239 -0.658,-2.621 -0.936,-3.069c-1.006,-1.628 -2.005,-10.857 -2.022,-18.677c-0.017,-7.421 0.489,-12.251 1.936,-18.5c0.319,-1.375 0.806,-3.625 1.082,-5c0.277,-1.375 1.675,-4.975 3.108,-8c1.432,-3.025 2.533,-5.838 2.446,-6.25c-0.088,-0.413 0.201,-0.75 0.64,-0.75c0.44,0 1.369,-1.575 2.065,-3.5c0.696,-1.925 1.686,-3.5 2.201,-3.5c0.514,0 0.935,-0.675 0.935,-1.5c0,-0.825 0.45,-1.5 1,-1.5c0.55,0 1,-0.689 1,-1.531c0,-0.843 0.675,-1.791 1.5,-2.107c0.825,-0.317 1.5,-1.104 1.5,-1.749c0,-0.645 1.562,-2.646 3.471,-4.447l3.471,-3.273l0.058,41.303c0.06,43.094 0.073,43.53 1.337,45.554c0.43,0.688 0.508,1.25 0.174,1.25c-1.231,0 5.533,8.855 8.708,11.4c1.804,1.447 3.796,3.046 4.424,3.555c0.629,0.509 1.417,0.652 1.75,0.318c0.334,-0.333 0.607,-0.006 0.607,0.727c0,0.733 0.266,1.067 0.592,0.742c0.325,-0.326 2.463,0.202 4.75,1.172c8.55,3.628 22.708,2.138 34.512,-3.633l5.354,-2.617l-0.354,-65.844c-0.311,-57.862 -0.172,-65.9 1.146,-66.308c6.918,-2.141 39.196,-2.855 48.5,-1.074c12.469,2.387 20.285,4.776 25.097,7.672c1.703,1.025 3.39,1.569 3.75,1.21c0.359,-0.359 0.653,-0.102 0.653,0.572c0,0.674 0.412,0.972 0.915,0.661c0.503,-0.311 1.065,-0.225 1.25,0.191c0.184,0.416 2.472,1.831 5.085,3.145c2.613,1.314 4.75,2.776 4.75,3.25c0,0.474 0.563,0.861 1.25,0.861c1.569,0 17.333,13.352 18.633,15.782c0.53,0.989 2.572,3.556 4.54,5.703c1.967,2.148 3.577,4.493 3.577,5.21c0,0.718 0.387,1.305 0.861,1.305c0.474,0 1.936,2.137 3.25,4.75c1.314,2.613 2.729,4.901 3.145,5.085c0.416,0.185 0.502,0.747 0.191,1.25c-0.311,0.503 -0.088,0.915 0.494,0.915c0.582,0 1.059,0.873 1.059,1.941c0,1.068 0.415,2.197 0.922,2.511c0.874,0.54 4.581,10.715 5.602,15.376c0.262,1.195 0.709,3.185 0.994,4.422c1.618,7.024 1.936,10.192 1.936,19.25c0.001,11.285 -1.274,24.08 -3.139,31.5c-0.345,1.375 -0.755,3.149 -0.911,3.941c-0.156,0.793 -0.543,2.478 -0.861,3.746c-0.319,1.267 -0.547,2.419 -0.508,2.559c0.04,0.139 -1.514,4.81 -3.452,10.377c-3.246,9.326 -12.001,28.207 -13.621,29.377c-0.381,0.275 -1.008,1.512 -1.395,2.75c-0.386,1.237 -1.121,2.25 -1.634,2.25c-0.513,0 -0.933,0.567 -0.933,1.26c0,0.693 -1.125,2.474 -2.5,3.957c-1.375,1.482 -2.5,3.053 -2.501,3.489c0,0.437 -1.538,2.594 -3.417,4.794c-1.879,2.2 -4.916,5.791 -6.749,7.979c-6.306,7.529 -22.213,22.45 -24.919,23.374c-0.568,0.195 -2.198,1.432 -3.62,2.75c-1.422,1.318 -3.195,2.397 -3.94,2.397c-0.745,0 -1.354,0.45 -1.354,1c0,0.55 -0.675,1 -1.5,1c-0.825,0 -1.5,0.378 -1.5,0.841c0,0.974 -10.13,6.723 -11.25,6.385c-0.413,-0.124 -0.75,0.169 -0.75,0.653c0,0.706 -4.841,3.264 -7,3.699c-0.275,0.055 -2.701,1.122 -5.391,2.37c-2.69,1.249 -5.39,2.378 -6,2.51c-0.61,0.132 -1.784,0.525 -2.609,0.874c-4.155,1.757 -10,3.512 -10,3.001c0,-0.318 -0.562,-0.132 -1.25,0.414c-1.258,0.997 -8.253,2.831 -14.75,3.866c-7.234,1.152 -8.672,1.343 -15.5,2.054c-13.833,1.441 -33.893,0.724 -46.469,-1.661c-6.05,-1.147 -16.926,-3.84 -19.031,-4.712c-0.825,-0.342 -1.838,-0.716 -2.25,-0.833c-0.412,-0.116 -0.975,-0.323 -1.25,-0.461c-0.275,-0.138 -0.95,-0.362 -1.5,-0.5c-0.55,-0.138 -1.113,-0.341 -1.25,-0.452c-0.137,-0.11 -1.038,-0.352 -2.002,-0.536c-3.416,-0.654 -26.924,-11.883 -29.034,-13.869c-0.668,-0.629 -2.444,-1.777 -3.947,-2.553c-1.503,-0.775 -3.622,-2.238 -4.708,-3.25c-1.087,-1.012 -2.332,-1.84 -2.767,-1.841c-0.436,0 -2.592,-1.538 -4.792,-3.417c-2.2,-1.879 -5.793,-4.916 -7.984,-6.749c-6.205,-5.191 -20.516,-19.89 -20.516,-21.072c0,-0.351 -1.35,-2.116 -3,-3.922c-1.65,-1.807 -3,-3.653 -3,-4.104c0,-0.45 -0.828,-1.707 -1.84,-2.794c-1.012,-1.086 -2.475,-3.205 -3.25,-4.708c-0.776,-1.503 -1.924,-3.279 -2.553,-3.947c-0.628,-0.668 -3.067,-5.168 -5.419,-10c-2.352,-4.832 -4.835,-9.911 -5.516,-11.286c-0.682,-1.375 -1.335,-2.95 -1.451,-3.5c-0.116,-0.55 -0.651,-2.125 -1.19,-3.5c-0.539,-1.375 -1.06,-2.95 -1.158,-3.5c-0.099,-0.55 -0.531,-1.562 -0.96,-2.25c-0.43,-0.688 -0.552,-1.25 -0.273,-1.25c0.279,0 -0.15,-1.575 -0.954,-3.5c-0.805,-1.925 -1.216,-3.5 -0.914,-3.5c0.301,0 0.128,-0.787 -0.387,-1.75c-0.514,-0.962 -1.25,-3.55 -1.635,-5.75c-0.385,-2.2 -0.858,-4.9 -1.05,-6c-1.197,-6.841 -1.602,-9.74 -2.236,-16c-0.905,-8.935 -0.908,-20.94 -0.008,-30.5c0.647,-6.874 1.077,-9.991 2.347,-17c0.249,-1.375 0.609,-3.4 0.8,-4.5c0.776,-4.468 1.917,-9.058 2.486,-10c0.333,-0.55 0.686,-1.536 0.786,-2.19c0.377,-2.486 2.677,-8.862 3.628,-10.06c0.545,-0.687 0.66,-1.25 0.254,-1.25c-0.405,0 0,-1.125 0.901,-2.5c0.901,-1.375 1.394,-2.5 1.095,-2.5c-0.299,0 0.456,-1.912 1.679,-4.25c1.222,-2.337 2.131,-4.587 2.02,-5c-0.111,-0.413 0.165,-0.75 0.614,-0.75c0.449,0 1.842,-2.475 3.096,-5.5c1.253,-3.025 2.686,-5.5 3.184,-5.5c0.497,0 0.904,-0.617 0.904,-1.372c0,-3.27 13.462,-20.125 26.26,-32.878c7.589,-7.562 14.21,-13.75 14.714,-13.75c0.503,0 2.627,-1.573 4.72,-3.495c2.093,-1.923 4.32,-3.498 4.949,-3.5c0.629,-0.003 1.402,-0.68 1.719,-1.505c0.316,-0.825 1.014,-1.5 1.551,-1.5c0.537,0 2.688,-1.573 4.781,-3.495c2.093,-1.923 4.331,-3.498 4.973,-3.5c0.641,-0.003 1.316,-0.406 1.5,-0.896c0.469,-1.256 10.574,-9.109 11.72,-9.109c0.521,0 1.096,-0.401 1.28,-0.891c0.352,-0.941 10.438,-9.109 11.248,-9.109c0.261,0 2.186,-1.573 4.279,-3.495c2.093,-1.923 4.369,-3.498 5.056,-3.5c0.688,-0.003 1.25,-0.469 1.25,-1.036c0,-0.568 0.722,-1.309 1.605,-1.648c0.883,-0.339 3.22,-2.095 5.193,-3.902c6.854,-6.28 7.202,-5.893 7.202,8.008c0,6.732 0.277,12.516 0.615,12.854c0.338,0.338 1.619,-0.043 2.846,-0.848c2.619,-1.716 22.539,-8.56 22.539,-7.744c0,0.306 0.563,0.103 1.25,-0.451c1.138,-0.917 5.031,-2.006 10.25,-2.868c1.1,-0.182 5.15,-0.983 9,-1.78c3.85,-0.798 8.688,-1.727 10.75,-2.066l3.75,-0.615l0.057,-28.704l0.057,-28.705l4.924,-3.75c2.708,-2.063 5.344,-3.75 5.859,-3.75c0.515,0 1.086,-0.401 1.27,-0.891c0.352,-0.941 10.438,-9.109 11.248,-9.109c0.261,0 2.186,-1.573 4.279,-3.495c2.093,-1.923 4.369,-3.498 5.056,-3.5c0.688,-0.003 1.25,-0.469 1.25,-1.036c0,-0.568 0.722,-1.309 1.605,-1.648c0.883,-0.339 3.246,-2.122 5.25,-3.964c2.005,-1.841 4.17,-3.35 4.812,-3.352c0.641,-0.003 1.316,-0.406 1.5,-0.896c0.469,-1.256 10.574,-9.109 11.72,-9.109c0.521,0 1.096,-0.401 1.28,-0.891c0.352,-0.941 10.438,-9.109 11.248,-9.109c0.261,0 2.186,-1.573 4.279,-3.495c2.093,-1.923 4.369,-3.498 5.056,-3.5c0.688,-0.003 1.25,-0.469 1.25,-1.036c0,-0.568 0.722,-1.309 1.605,-1.648c0.883,-0.339 3.246,-2.122 5.25,-3.964c2.005,-1.841 4.17,-3.35 4.812,-3.352c0.641,-0.003 1.316,-0.417 1.5,-0.92c0.183,-0.503 3.838,-3.596 8.122,-6.874c10.759,-8.23 20.395,-17.737 25.663,-25.318c2.444,-3.516 4.842,-6.668 5.331,-7.005c0.488,-0.336 0.843,-0.902 0.789,-1.257c-0.054,-0.354 1.035,-2.882 2.421,-5.617c1.385,-2.734 3.451,-7.569 4.591,-10.743c1.139,-3.174 2.329,-6.446 2.644,-7.271c3.157,-8.254 4.858,-34.28 2.975,-45.5c-0.587,-3.5 -1.195,-6.444 -2.064,-10c-0.135,-0.55 -1.103,-3.475 -2.151,-6.5c-1.048,-3.025 -1.947,-5.725 -1.997,-6c-0.05,-0.275 -2.09,-4.325 -4.532,-9c-2.443,-4.675 -4.625,-8.95 -4.85,-9.5c-0.225,-0.55 -0.68,-1.225 -1.011,-1.5c-0.331,-0.275 -3.301,-3.875 -6.6,-7.999c-3.299,-4.125 -7.123,-8.395 -8.498,-9.491c-1.375,-1.095 -3.533,-3.007 -4.795,-4.25c-1.263,-1.243 -2.74,-2.26 -3.282,-2.26c-0.542,0 -1.245,-0.675 -1.561,-1.5c-0.317,-0.825 -0.987,-1.5 -1.49,-1.5c-0.826,0 -8.656,-4.751 -9.872,-5.991c-0.756,-0.769 -8.493,-4.267 -8.544,-3.862c-0.024,0.194 -1.149,-0.348 -2.5,-1.204c-2.128,-1.349 -9.042,-3.822 -12.623,-4.516c-0.642,-0.124 -3.567,-0.762 -6.5,-1.417c-2.933,-0.656 -7.583,-1.38 -10.333,-1.611c-2.75,-0.231 -6.618,-0.634 -8.596,-0.896c-1.978,-0.263 -3.778,-0.312 -4,-0.111M1048.77308,50.70139c1.65,0.331 5.7,1.926 9,3.543c8.895,4.359 16.027,11.7 20.405,21.002c2.335,4.961 2.589,6.677 2.592,17.5c0.003,11.504 -0.132,12.281 -3.266,18.793c-3.608,7.498 -9.529,14.514 -15.102,17.896c-1.996,1.211 -3.989,2.788 -4.429,3.506c-0.44,0.718 -1.202,1.305 -1.694,1.305c-0.492,0 -2.607,1.573 -4.7,3.495c-2.093,1.923 -4.32,3.498 -4.949,3.5c-0.629,0.003 -1.402,0.68 -1.719,1.505c-0.316,0.825 -1.014,1.5 -1.551,1.5c-0.537,0 -2.688,1.573 -4.781,3.495c-2.093,1.923 -4.331,3.498 -4.973,3.5c-0.641,0.003 -1.316,0.406 -1.5,0.896c-0.489,1.308 -10.598,9.109 -11.804,9.109c-0.566,0 -1.029,0.389 -1.029,0.864c0,0.475 -1.913,2.161 -4.25,3.747c-2.337,1.586 -4.61,3.447 -5.05,4.136c-0.44,0.689 -1.199,1.253 -1.688,1.253c-0.489,0 -2.367,1.35 -4.173,3c-1.807,1.65 -3.859,3 -4.562,3c-0.702,0 -1.277,0.434 -1.277,0.965c0,0.53 -0.788,1.386 -1.75,1.901c-1.656,0.886 -1.741,-1.572 -1.582,-45.839c0.093,-25.727 0.444,-48.52 0.779,-50.651c1.592,-10.103 13.18,-26.24 20.087,-27.974c1.356,-0.34 2.466,-1.095 2.466,-1.677c0,-0.582 0.296,-0.762 0.658,-0.4c0.362,0.362 1.216,0.195 1.898,-0.371c0.682,-0.566 2.073,-1.231 3.092,-1.476c1.019,-0.246 3.427,-0.832 5.352,-1.301c3.681,-0.899 14.412,-0.746 19.5,0.278" id="CompoundPath 1" fill="#ffffff" fill-rule="evenodd" stroke="none" stroke-linecap="butt" stroke-linejoin="miter"/><path d="M1269.02559,426.23757" id="Path 1" fill="none" fill-rule="nonzero" stroke="#000000" stroke-linecap="round" stroke-linejoin="round"/><g id="Group 1" fill-rule="evenodd" stroke="none" stroke-linecap="butt" stroke-linejoin="miter"><path d="M1109.69333,112.77131c-13.475,7.786 -32.937,19.034 -43.25,24.994c-10.312,5.961 -18.75,10.697 -18.75,10.525c0,-0.172 -35.765,25.735 -47.294,34.367l-5.794,4.338l-3.23,-3.131c-2.982,-2.89 -3.315,-2.993 -4.344,-1.346c-0.613,0.982 -11.243,7.602 -23.622,14.712l-22.509,12.928l-0.603,4.405c-0.332,2.422 -0.604,6.494 -0.604,9.049c0,4.292 -0.398,5.028 -5.25,9.713c-2.887,2.787 -28.875,23.219 -57.75,45.403c-62.268,47.839 -64.414,49.558 -73.718,59.076c-42.62,43.601 -66.733,110.187 -62.334,172.129c1.29,18.164 6.14,46.339 8.1,47.065c0.405,0.149 35.686,-19.895 40.602,-23.068c0.857,-0.552 0.753,-2.786 -0.406,-8.742c-1.082,-5.561 -1.583,-14.401 -1.643,-29c-0.073,-18.098 0.229,-22.555 2.188,-32.255c6.236,-30.878 19.899,-58.149 40.955,-81.745c4.907,-5.5 12.71,-13.409 17.339,-17.577c8.898,-8.009 82.251,-64.923 83.676,-64.923c0.459,0 2.501,1.706 4.538,3.792c3.588,3.674 3.703,4.02 3.703,11.107c0,6.582 0.175,7.241 1.75,6.576c6.246,-2.639 24.322,-7.825 33.902,-9.726l11.333,-2.249l0.008,-25.538l0.007,-25.537l4.75,-4.56c2.613,-2.508 30.081,-24.046 61.04,-47.862c52.421,-40.325 56.673,-43.824 61.854,-50.902c9.552,-13.052 15.909,-27.722 18.878,-43.567c2.702,-14.421 4.298,-14.526 -23.522,1.549M998.40133,344.14531c-38.003,4.83 -72.326,18.972 -97.146,40.027c-20.961,17.782 -37.223,44.823 -44.668,74.278c-2.617,10.354 -5.934,37.531 -4.728,38.737c0.277,0.278 11.491,-5.836 24.919,-13.587l24.415,-14.092l4.455,-9.545c5.021,-10.757 11.111,-19.808 19.575,-29.092l5.758,-6.316l4.356,4.275c4.304,4.224 4.356,4.356 4.356,11.15c0,3.929 0.409,6.732 0.954,6.541c0.525,-0.183 11.097,-6.183 23.494,-13.333l22.539,-13l0.007,-10.042l0.006,-10.042l4.25,-4.156c3.734,-3.652 5.1,-4.295 11.25,-5.296c3.85,-0.627 14.091,-1.271 22.758,-1.43l15.758,-0.29l25.742,-14.781c14.158,-8.13 26.331,-15.315 27.051,-15.967c2.066,-1.871 -18.065,-9.024 -35.377,-12.571c-13.081,-2.679 -44.179,-3.444 -59.724,-1.468M1149.51833,561.96431l-31.56,18.224l-5.766,8.5c-14.352,21.156 -35.091,41.87 -56.19,56.123c-25.295,17.089 -59.816,27.877 -89.2,27.877h-9.135l-30.487,17.613c-16.768,9.687 -30.487,17.973 -30.487,18.413c0,0.843 16.998,5.088 28,6.992c5.528,0.957 7.135,1.743 10.75,5.262l4.25,4.136v51.842c0,42.592 -0.251,52.323 -1.406,54.542c-2.48,4.763 -16.772,17.794 -21.094,19.231c-5.864,1.951 -13.525,1.507 -18.589,-1.077c-5.606,-2.86 -15.397,-12.228 -18.765,-17.954c-3.593,-6.111 -3.771,-16.511 -0.384,-22.5c6.13,-10.839 6.718,-12.718 6.728,-21.5c0.013,-11.126 -2.565,-16.288 -9.99,-20c-6.812,-3.406 -17.68,-3.474 -25.107,-0.157c-4.499,2.009 -5.589,3.135 -9.162,9.469c-13.102,23.224 -14.858,51.001 -4.799,75.905c9.278,22.97 26.861,37.309 53.257,43.431c10.967,2.544 29.051,2.306 39.811,-0.524c8.985,-2.363 23.595,-9.307 30.734,-14.606c9.847,-7.31 19.875,-23.806 23.799,-39.149c1.838,-7.185 1.967,-11.272 1.967,-62.321v-54.632l4.25,-4.049c3.991,-3.803 4.951,-4.184 15.75,-6.253c38.729,-7.421 74.315,-24.316 105.079,-49.888c29.619,-24.621 54.877,-65.677 66.504,-108.098c1.878,-6.854 3.277,-12.601 3.109,-12.77c-0.169,-0.168 -14.509,7.895 -31.867,17.918" id="CompoundPath 1" fill="#1536a1"/><path d="M1017.56955,-3.72523c-20.291,4.472 -39.782,14.733 -51.421,27.072c-6.004,6.364 -15.09,21.248 -18.768,30.743c-6.666,17.209 -6.737,18.141 -6.837,90.161c-0.05,35.75 -0.369,69.275 -0.709,74.5c-0.578,8.865 -0.828,9.723 -3.745,12.838c-1.719,1.836 -29.119,23.38 -60.888,47.874c-57.223,44.118 -67.024,52.102 -75.858,61.788c-18.83,20.647 -35.747,48.804 -45.662,76c-15.285,41.924 -17.905,91.354 -7.103,134c4.849,19.145 21.681,59.363 24.194,57.81c0.565,-0.349 0.691,-0.117 0.289,0.534c-0.879,1.421 1.766,5.43 2.903,4.4c0.451,-0.409 0.503,-0.191 0.115,0.484c-1.17,2.035 13.549,22.863 25.28,35.772c6.222,6.846 16.945,16.45 25.858,23.158c10.678,8.037 24.323,16.413 25.526,15.67c0.566,-0.35 0.751,-0.185 0.409,0.367c-0.749,1.212 20.895,11.689 34.63,16.762c11.502,4.249 24.594,7.798 37.182,10.08c7.916,1.435 9.451,2.068 12.75,5.25l3.75,3.619v51.847c0,42.562 -0.251,52.33 -1.404,54.547c-2.44,4.693 -15.774,16.788 -20.096,18.228c-5.846,1.949 -13.524,1.511 -18.561,-1.059c-5.626,-2.87 -14.45,-11.282 -17.785,-16.955c-3.601,-6.126 -3.782,-16.519 -0.392,-22.514c5.993,-10.597 6.688,-12.779 6.713,-21.074c0.02,-6.491 -0.451,-9.092 -2.402,-13.263c-2.079,-4.445 -3.226,-5.581 -8,-7.926c-7.507,-3.687 -18.016,-3.815 -25.861,-0.316c-4.565,2.036 -5.83,3.27 -9.25,9.026c-13.648,22.973 -15.727,52.026 -5.53,77.27c11.892,29.443 39.224,46.464 74.068,46.127c14.638,-0.142 24.115,-2.394 37,-8.795c16.232,-8.063 24.935,-16.681 32.515,-32.198c7.962,-16.296 7.985,-16.52 7.985,-78.308v-54.637l3.75,-3.543c3.384,-3.197 4.874,-3.758 15.25,-5.748c37.981,-7.281 71.752,-23.051 102.679,-47.948c39.199,-31.556 68.458,-85.479 75.336,-138.84c1.917,-14.877 2.639,-37.416 1.484,-46.327c-1.177,-9.078 -4.765,-24.681 -7.668,-33.345c-3.899,-11.638 -10.855,-26.758 -11.988,-26.058c-0.491,0.303 -0.792,0.181 -0.67,-0.273c0.471,-1.74 -1.365,-5.324 -2.4,-4.684c-0.632,0.391 -0.795,0.204 -0.39,-0.45c0.602,-0.975 -3.934,-9.19 -5.075,-9.19c-0.234,0 -0.105,0.52 0.287,1.155c0.446,0.721 0.274,0.882 -0.457,0.43c-0.644,-0.398 -0.896,-1.168 -0.56,-1.712c0.871,-1.408 -9.206,-14.227 -17.252,-21.948c-8.566,-8.219 -17.933,-15.286 -19.212,-14.495c-0.537,0.331 -1.301,0.076 -1.699,-0.568c-0.452,-0.731 -0.291,-0.903 0.43,-0.457c0.635,0.392 1.155,0.521 1.155,0.287c0,-1.141 -8.215,-5.677 -9.19,-5.075c-0.654,0.405 -0.841,0.242 -0.45,-0.39c0.64,-1.035 -2.944,-2.871 -4.684,-2.4c-0.454,0.122 -0.578,-0.176 -0.277,-0.664c0.748,-1.21 -16.769,-9.275 -28.399,-13.076c-28.505,-9.314 -62.472,-10.556 -97.521,-3.566c-35.533,7.087 -71.677,26.462 -91.42,49.005c-21.214,24.221 -34.057,54.196 -37.1,86.588c-2.27,24.161 3.221,50.647 15.075,72.721c5.317,9.901 13.886,21.095 20.351,26.585c7.069,6.003 17.655,12.673 18.895,11.907c0.566,-0.35 0.744,-0.175 0.396,0.389c-0.629,1.017 9.986,6.267 19.824,9.805c2.75,0.989 6.912,3.62 9.25,5.847l4.25,4.048v13.731v13.73l4.582,0.688c5.329,0.799 36.852,-0.061 40.168,-1.096c2.156,-0.673 2.25,-1.166 2.25,-11.798v-11.095l4.208,-4.288c2.315,-2.358 4.732,-4.288 5.373,-4.288c5.054,0 30.71,-10.676 29.74,-12.376c-0.353,-0.618 -0.287,-0.804 0.145,-0.414c0.778,0.701 6.534,-1.761 6.534,-2.795c0,-0.293 -0.52,-0.212 -1.155,0.18c-0.699,0.433 -0.883,0.276 -0.467,-0.397c0.377,-0.611 1.238,-0.899 1.913,-0.64c1.62,0.622 14.309,-9.529 18.57,-14.856c6.408,-8.013 11.233,-15.741 10.533,-16.873c-0.4,-0.648 -0.261,-0.865 0.322,-0.505c1.373,0.849 7.613,-12.978 10.765,-23.856c3.173,-10.949 3.246,-19.015 0.238,-26.468c-2.02,-5.006 -2.758,-5.769 -8.219,-8.5c-5.163,-2.581 -7.046,-2.986 -13.5,-2.897c-5.609,0.077 -8.726,0.686 -12.364,2.414c-5.52,2.622 -7.974,5.978 -10.224,13.983c-0.851,3.025 -2.522,7.975 -3.713,11c-1.192,3.025 -2.024,5.95 -1.85,6.5c0.175,0.55 -0.017,0.665 -0.426,0.256c-1.018,-1.018 -3.7,2.986 -2.884,4.307c0.812,1.313 -16.197,18.266 -17.512,17.454c-0.524,-0.324 -2.657,0.482 -4.74,1.791c-15.298,9.612 -36.625,10.136 -55.287,1.358c-3.575,-1.682 -7.058,-3.02 -7.739,-2.975c-0.682,0.046 -0.993,-0.316 -0.691,-0.804c0.301,-0.488 0.073,-0.887 -0.508,-0.887c-0.58,0 -6.119,-4.815 -12.309,-10.699l-11.253,-10.7l9.5,9.849c5.225,5.416 8.078,8.879 6.34,7.695c-4.391,-2.992 -16.44,-16.174 -15.772,-17.254c0.668,-1.082 -1.981,-5.077 -2.908,-4.385c-0.363,0.272 -0.454,0.213 -0.203,-0.13c0.252,-0.343 -0.378,-2.261 -1.399,-4.262c-6.727,-13.187 -8.368,-31.769 -4.269,-48.331c3.628,-14.657 12.604,-30.449 24.784,-43.604l4.927,-5.322l3.881,3.998l3.881,3.998l0.429,41.323c0.485,46.615 0.691,48.12 7.162,52.272c6.711,4.305 13.555,5.869 23.047,5.267c4.73,-0.299 10.625,-1.262 13.1,-2.138l4.5,-1.594l-0.267,-53.992c-0.147,-29.695 -0.503,-53.991 -0.792,-53.991c-0.288,0 -10.629,5.85 -22.979,13c-12.35,7.15 -22.681,13 -22.958,13c-0.277,0 -0.504,-3.056 -0.504,-6.792c0,-6.695 -0.062,-6.852 -4.356,-11.066l-4.356,-4.275l-5.758,6.316c-8.468,9.288 -14.555,18.337 -19.575,29.096l-4.455,9.55l-24.5,14.098c-19.632,11.297 -24.571,13.761 -24.859,12.399c-0.813,-3.846 2.173,-27.357 4.791,-37.712c7.406,-29.3 23.712,-56.385 44.63,-74.13c32.861,-27.876 81.15,-43.053 130.937,-41.153c21.411,0.818 33.513,3.25 54.31,10.916c6.6,2.433 8.04,3.309 7,4.256c-0.72,0.656 -12.918,7.842 -27.107,15.968l-25.798,14.775l-15.702,0.289c-8.636,0.159 -18.852,0.802 -22.702,1.429c-6.15,1.001 -7.516,1.644 -11.25,5.296l-4.25,4.156l0.211,10.042l0.211,10.042l0.322,-10.079l0.322,-10.08l3.717,-3.625c3.21,-3.13 4.741,-3.788 11.217,-4.818c4.125,-0.657 14.7,-1.221 23.5,-1.254c14.407,-0.055 16.996,0.21 26,2.659c5.5,1.497 14.574,4.929 20.165,7.627c5.591,2.699 10.428,4.718 10.75,4.488c0.322,-0.23 0.363,-0.121 0.091,0.242c-0.708,0.948 3.316,3.568 4.427,2.882c0.511,-0.316 1.254,-0.048 1.652,0.596c0.483,0.781 0.288,0.901 -0.585,0.362c-0.892,-0.551 -1.068,-0.42 -0.553,0.414c0.415,0.672 1.304,1.012 1.975,0.754c0.671,-0.257 2.988,1.105 5.149,3.027l3.929,3.494l-4.5,-3.249c-3.46,-2.499 -2.951,-1.818 2.206,2.945c3.689,3.407 9.989,9.667 14,13.91c4.012,4.244 6.598,6.813 5.747,5.71c-3.588,-4.648 -3.935,-5.727 -0.668,-2.076c1.933,2.161 3.304,4.478 3.047,5.149c-0.258,0.671 0.082,1.56 0.754,1.975c0.834,0.515 0.965,0.339 0.414,-0.553c-0.539,-0.873 -0.419,-1.068 0.362,-0.585c0.644,0.398 0.912,1.141 0.596,1.652c-0.686,1.111 1.934,5.135 2.882,4.427c0.363,-0.272 0.461,-0.22 0.218,0.114c-0.242,0.335 1.532,4.515 3.944,9.289c8.072,15.981 12.179,34.412 11.047,49.576c-3.431,45.951 -21.015,82.604 -55.684,116.066c-24.141,23.302 -47.867,37.1 -77.127,44.853c-12.833,3.4 -21.222,4.706 -35.738,5.563c-12.218,0.721 -12.3,0.741 -3.628,0.891c28.036,0.486 63.583,-10.594 88.937,-27.723c21.092,-14.248 41.811,-34.94 56.196,-56.123l5.772,-8.5l31.556,-18.222c17.355,-10.023 31.693,-18.086 31.86,-17.918c0.168,0.168 -1.232,5.914 -3.11,12.768c-11.627,42.421 -36.885,83.477 -66.504,108.098c-30.764,25.572 -66.35,42.467 -105.079,49.888c-10.799,2.069 -11.759,2.45 -15.75,6.253l-4.25,4.049v54.632c0,61.758 -0.028,62.033 -7.958,78.231c-7.667,15.662 -15.124,23.05 -31.542,31.247c-12.849,6.415 -22.334,8.676 -37,8.818c-18.643,0.18 -34.004,-4.207 -48.521,-13.858c-18.151,-12.067 -29.448,-34.058 -30.71,-59.779c-0.874,-17.822 2.494,-32.386 10.962,-47.395c3.573,-6.334 4.663,-7.46 9.162,-9.469c7.427,-3.317 18.295,-3.249 25.107,0.157c7.425,3.712 10.003,8.874 9.99,20c-0.01,8.782 -0.598,10.661 -6.728,21.5c-3.387,5.989 -3.209,16.389 0.384,22.5c3.368,5.726 13.159,15.094 18.765,17.954c5.064,2.584 12.725,3.028 18.589,1.077c4.322,-1.437 18.614,-14.468 21.094,-19.231c1.155,-2.219 1.406,-11.95 1.406,-54.542v-51.842l-4.25,-4.136c-3.615,-3.519 -5.222,-4.305 -10.75,-5.262c-11.122,-1.925 -28,-6.153 -28,-7.014c0,-0.452 12.938,-8.266 28.75,-17.365c15.813,-9.098 29.601,-17.167 30.641,-17.931c1.678,-1.231 0.815,-1.458 -7.621,-2.013c-18.946,-1.244 -41.998,-7.878 -61.175,-17.605c-6.332,-3.211 -11.828,-5.558 -12.214,-5.215c-0.386,0.344 -0.398,0.095 -0.027,-0.553c0.68,-1.187 -2.904,-2.986 -4.854,-2.437c-0.55,0.155 -0.668,-0.05 -0.263,-0.456c0.406,-0.405 -1.077,-2.072 -3.296,-3.704c-2.218,-1.631 -4.296,-2.703 -4.618,-2.382c-0.619,0.62 -11.458,-7.542 -13.573,-10.221c-0.687,-0.871 0.717,-0.017 3.122,1.897c7.953,6.333 10.704,8.23 5.628,3.882c-6.436,-5.513 -26.852,-25.925 -32.408,-32.401c-3.485,-4.063 -3.662,-4.181 -0.94,-0.628c1.841,2.404 4.461,5.779 5.821,7.5c1.474,1.864 1.737,2.54 0.651,1.673c-2.771,-2.212 -10.622,-12.714 -9.983,-13.353c0.868,-0.867 -7.259,-11.73 -8.164,-10.913c-0.439,0.397 -0.511,0.218 -0.16,-0.397c0.351,-0.616 -1.385,-4.666 -3.857,-9c-7.833,-13.732 -14.786,-33.451 -18.118,-51.382c-2.77,-14.91 -2.535,-46.914 0.454,-61.755c6.212,-30.851 19.902,-58.174 40.957,-81.745c4.913,-5.5 12.491,-13.182 16.84,-17.071c8.714,-7.793 81.827,-64.429 83.173,-64.429c0.463,0 2.28,1.484 4.038,3.298c3.038,3.134 3.196,3.682 3.196,11.073c0,5.74 0.327,7.684 1.25,7.426c0.688,-0.193 6.425,-2.029 12.75,-4.081c6.325,-2.051 16.675,-4.793 23,-6.093l11.5,-2.363l0.267,-25.843l0.268,-25.844l2.732,-2.874c1.503,-1.581 28.804,-22.973 60.668,-47.537c54.474,-41.994 58.288,-45.138 63.847,-52.629c16.883,-22.753 23.82,-50.748 19.592,-79.066c-2.768,-18.546 -12.64,-39.39 -25.122,-53.048c-5.529,-6.05 -19.361,-15.779 -20.996,-14.768c-0.586,0.362 -0.779,0.196 -0.43,-0.369c1.162,-1.88 -14.978,-8.351 -28.073,-11.254c-10.374,-2.3 -33.759,-2.573 -43.148,-0.504M981.46455,12.12877c0,0.207 -0.788,0.995 -1.75,1.75c-1.586,1.243 -1.621,1.208 -0.378,-0.378c1.307,-1.666 2.128,-2.195 2.128,-1.372M1106.80755,20.65677c1.563,1.427 4.232,4.394 5.93,6.594c2.051,2.656 0.592,1.583 -4.342,-3.194c-4.087,-3.957 -8.556,-8.172 -9.931,-9.365c-1.375,-1.194 -0.7,-0.924 1.5,0.6c2.2,1.524 5.279,3.938 6.843,5.365M973.13255,19.02177c-2.658,2.326 -6.635,6.254 -8.837,8.729c-2.202,2.475 -3.403,3.562 -2.668,2.416c3.059,-4.769 14.007,-15.459 15.767,-15.395c0.313,0.011 -1.605,1.923 -4.262,4.25M1117.59255,33.50077c1.243,1.586 1.208,1.621 -0.378,0.378c-0.962,-0.755 -1.75,-1.543 -1.75,-1.75c0,-0.823 0.821,-0.294 2.128,1.372M1045.96455,43.95877c3.85,0.684 7.558,1.193 8.239,1.131c0.682,-0.062 0.949,0.357 0.594,0.931c-0.407,0.659 0.152,0.837 1.512,0.481c1.396,-0.365 1.923,-0.185 1.492,0.512c-0.417,0.676 -0.061,0.845 0.956,0.455c1.826,-0.701 11.611,5.437 15.873,9.955c3.126,3.314 9.834,13.359 9.834,14.726c0,0.519 -1.328,-1.061 -2.951,-3.511c-3.485,-5.262 -16.475,-18.064 -20.049,-19.76l-2.5,-1.186l2.5,1.698c4.767,3.236 19.562,18.888 20.894,22.104c0.736,1.777 1.731,2.988 2.211,2.691c0.479,-0.296 0.576,0.233 0.214,1.177c-0.365,0.95 -0.248,1.462 0.261,1.148c1.169,-0.723 1.448,1.886 1.811,16.952c0.192,7.962 -0.053,11.997 -0.706,11.594c-0.605,-0.375 -0.777,0.232 -0.436,1.539c0.362,1.383 0.182,1.921 -0.5,1.5c-0.682,-0.421 -0.861,0.117 -0.5,1.5c0.353,1.351 0.177,1.918 -0.472,1.517c-0.587,-0.363 -0.824,-0.038 -0.546,0.749c0.923,2.609 -3.492,9.383 -10.845,16.639c-4.04,3.987 -7.807,7.25 -8.371,7.25c-0.564,0 2.736,-3.719 7.332,-8.263c4.596,-4.545 9.105,-9.833 10.019,-11.75c0.914,-1.918 1.094,-2.622 0.398,-1.565c-6.833,10.388 -14.702,17.02 -71.54,60.291l-15.276,11.629l-3.533,-3.421l-3.533,-3.421l0.5,-48c0.529,-50.805 0.601,-52.629 2.026,-51.748c0.499,0.308 0.653,-0.41 0.343,-1.597c-0.362,-1.383 -0.182,-1.921 0.5,-1.5c0.682,0.421 0.861,-0.117 0.5,-1.5c-0.365,-1.396 -0.185,-1.923 0.512,-1.492c0.672,0.415 0.846,0.065 0.464,-0.932c-0.742,-1.934 5.576,-11.895 10.392,-16.382c5.339,-4.975 10.84,-8.302 12.605,-7.625c1.059,0.407 1.361,0.222 0.888,-0.543c-0.482,-0.78 -0.156,-0.943 1,-0.5c1.157,0.444 1.483,0.281 1,-0.5c-0.482,-0.78 -0.156,-0.943 1,-0.5c1.096,0.421 1.476,0.27 1.051,-0.418c-0.431,-0.697 0.096,-0.877 1.492,-0.512c1.322,0.346 1.915,0.172 1.532,-0.449c-0.388,-0.628 0.37,-0.823 1.992,-0.513c1.44,0.276 2.374,0.098 2.076,-0.394c-0.865,-1.429 10.104,-1.545 17.745,-0.187M1005.58555,57.18877c-4.741,4.641 -9.428,9.929 -10.415,11.75c-1.523,2.813 -1.534,2.936 -0.072,0.812c0.947,-1.375 5.869,-6.662 10.938,-11.75c5.069,-5.088 8.981,-9.25 8.694,-9.25c-0.288,0 -4.403,3.797 -9.145,8.438M1133.98655,111.28477c-2.969,15.845 -9.326,30.515 -18.878,43.567c-5.181,7.078 -9.433,10.577 -61.854,50.902c-30.959,23.816 -58.427,45.354 -61.04,47.862l-4.75,4.56l-0.007,25.537l-0.008,25.538l-11.333,2.249c-9.58,1.901 -27.656,7.087 -33.902,9.726c-1.575,0.665 -1.75,0.006 -1.75,-6.576c0,-7.087 -0.115,-7.433 -3.703,-11.107c-2.037,-2.086 -4.079,-3.792 -4.538,-3.792c-1.425,0 -74.778,56.914 -83.676,64.923c-31.219,28.104 -50.568,61.071 -58.294,99.322c-1.959,9.7 -2.261,14.157 -2.188,32.255c0.06,14.638 0.559,23.423 1.648,29c0.859,4.4 1.492,8.074 1.406,8.165c-0.085,0.09 -9.516,5.579 -20.956,12.198c-12.827,7.42 -20.957,11.574 -21.208,10.835c-1.287,-3.795 -3.611,-14.442 -4.956,-22.698c-9.32,-57.239 2.975,-115.787 34.386,-163.737c11.155,-17.028 20.351,-28.08 32.667,-39.26c3.349,-3.04 32.149,-25.621 64,-50.18c31.852,-24.559 59.544,-46.379 61.538,-48.488c3.469,-3.669 3.652,-4.22 4.211,-12.712c0.321,-4.882 0.714,-8.974 0.873,-9.093c0.16,-0.118 10.363,-6.015 22.675,-13.103c12.312,-7.089 22.877,-13.674 23.477,-14.634c0.996,-1.596 1.37,-1.476 4.32,1.383l3.23,3.131l5.794,-4.338c3.187,-2.386 18.308,-13.979 33.603,-25.762c15.294,-11.783 28.043,-21.188 28.331,-20.9c0.288,0.287 -2.889,3.091 -7.058,6.229c-4.17,3.138 -7.582,5.853 -7.582,6.033c0,0.18 10.238,-5.583 22.75,-12.806c67.7,-39.084 63.728,-36.926 64.066,-34.802c0.174,1.09 -0.409,5.848 -1.294,10.573M1140.75555,387.66077c3.185,3.075 7.873,8.29 10.417,11.59c4.441,5.76 4.339,5.693 -2.566,-1.687c-3.956,-4.228 -10.894,-11.184 -15.417,-15.458c-5.414,-5.115 -6.516,-6.449 -3.225,-3.903c2.75,2.128 7.606,6.384 10.791,9.458M1107.43755,423.22377c3.528,3.56 6.19,6.697 5.916,6.971c-0.274,0.275 -3.612,-2.638 -7.417,-6.472c-3.805,-3.835 -6.467,-6.972 -5.916,-6.972c0.551,0 3.889,2.913 7.417,6.473M1071.61455,506.11877c0.937,1.825 0.897,1.922 -0.278,0.678c-0.754,-0.8 -2.047,-2.039 -2.872,-2.753c-1.306,-1.13 -1.27,-1.218 0.278,-0.678c0.978,0.341 2.27,1.58 2.872,2.753M1011.44255,545.50077l-8.478,8.75l8.75,-8.478c8.127,-7.874 9.206,-9.022 8.478,-9.022c-0.15,0 -4.087,3.938 -8.75,8.75M891.24255,581.84177c6.039,5.497 4.774,4.946 -2.811,-1.226c-2.493,-2.028 -6.715,-6.54 -9.382,-10.026l-4.849,-6.339l5.66,6.192c3.113,3.405 8.235,8.535 11.382,11.399M1052.79955,575.56377c-3.381,4.244 -7.122,7.812 -13.773,13.136c-1.065,0.853 2.31,-2.801 7.5,-8.12c5.191,-5.32 9.589,-9.707 9.773,-9.75c0.184,-0.044 -1.391,2.087 -3.5,4.734M940.46455,609.41877c0,1.283 -0.137,2.332 -0.304,2.332c-0.167,0 -1.809,-1.554 -3.65,-3.452l-3.346,-3.453l3.65,1.12c2.836,0.871 3.65,1.64 3.65,3.453M994.46455,609.06377c0,0.172 -1.35,1.606 -3,3.187l-3,2.874v-2.62c0,-2.092 0.556,-2.705 2.75,-3.038c1.512,-0.229 2.863,-0.484 3,-0.566c0.137,-0.083 0.25,-0.009 0.25,0.163M847.90555,627.64377c-0.654,0.654 -15.441,-14.04 -15.441,-15.345c0,-0.55 3.586,2.564 7.97,6.922c4.383,4.358 7.745,8.148 7.471,8.423M787.34355,633.20677c7.102,9.406 18.658,21.747 27.81,29.7c11.481,9.975 13.118,11.461 11.858,10.766c-2.827,-1.559 -13.843,-10.845 -20.382,-17.18c-8.318,-8.06 -25.519,-28.742 -23.904,-28.742c0.274,0 2.352,2.455 4.618,5.456M831.59255,676.50077c1.243,1.586 1.208,1.621 -0.378,0.378c-0.963,-0.755 -1.75,-1.543 -1.75,-1.75c0,-0.823 0.821,-0.294 2.128,1.372" id="CompoundPath 1" fill="#e6ad00"/></g></g></g></svg>