<svg version="1.1" xmlns="http://www.w3.org/2000/svg" xmlns:xlink="http://www.w3.org/1999/xlink" width="586.96512" height="635.27586" viewBox="667.11323,165.86207,586.96512,635.27586"><g fill-opacity="0" fill="#000000" fill-rule="nonzero" stroke="#ffffff" stroke-width="45" stroke-linecap="round" stroke-linejoin="miter" stroke-miterlimit="10" stroke-dasharray="" stroke-dashoffset="0" font-family="none" font-weight="none" font-size="none" text-anchor="none" style="mix-blend-mode: normal"><g id="Group 1"><path d="M958.36305,628.62964c-22.12576,34.40513 -46.41695,69.21225 -68.57965,99.31134c-40.85235,55.48144 -97.91611,65.50271 -148.31036,29.67987c-50.39425,-35.82285 -67.85432,-87.265 -35.38388,-145.63661c32.47044,-58.37161 88.13893,-136.01743 117.78915,-182.52468c29.65021,-46.50725 89.5533,-70.4965 149.7112,-32.83252c55.7652,34.91377 64.63141,91.85118 32.3241,141.87062" id="Path 2"/><path d="M962.82853,338.37036c22.12576,-34.40513 46.41695,-69.21225 68.57965,-99.31134c40.85235,-55.48144 97.91611,-65.50271 148.31036,-29.67987c50.39425,35.82285 67.85432,87.265 35.38388,145.63661c-32.47044,58.37161 -88.13893,136.01743 -117.78915,182.52468c-29.65021,46.50725 -89.5533,70.4965 -149.7112,32.83252c-55.7652,-34.91377 -64.63141,-91.85118 -32.3241,-141.87062" id="Path 1 1"/></g></g></svg>