<svg version="1.1" xmlns="http://www.w3.org/2000/svg" xmlns:xlink="http://www.w3.org/1999/xlink" width="266.35357" height="283.9467" viewBox="852.12104,259.01275,266.35357,283.9467"><g fill="none" fill-rule="nonzero" stroke="none" stroke-width="none" stroke-linecap="round" stroke-linejoin="round" stroke-miterlimit="10" stroke-dasharray="" stroke-dashoffset="0" font-family="none" font-weight="none" font-size="none" text-anchor="none" style="mix-blend-mode: normal"><g id="Group 1"><path d="M860.14237,334.71276l124.63584,-0.0922l-124.63584,0.0922l0.16788,-25.36724c0,0 -4.08903,-25.0018 25.75122,-25.45747c24.97306,0.24565 99.28472,0.44493 99.28472,0.44493c0,0 74.87969,0.26492 99.21019,0.34556c29.60057,0.17205 25.57407,24.71277 25.57407,24.71277l-0.00968,25.2735l-125.34255,-0.04425l125.34255,0.03309l0.35384,199.78667l-249.90771,0.51913z" id="Path 1 1" fill-opacity="0" fill="#000000" stroke="#ffffff" stroke-width="16"/><path d="M909.97839,309.57797v-50.13043h25.34783v50.13043z" id="Path 2" fill="#ffffff" stroke="#000000" stroke-width="0"/><path d="M1034.761,309.57797v-50.56522h24.47826v50.56522z" id="Path 2" fill="#ffffff" stroke="#000000" stroke-width="0"/><path d="M948.56524,483.26829l1.45989,0.93772c9.12494,5.86111 17.63024,7.8397 26.81663,7.8397c10.83103,0 20.63573,-3.13254 27.98136,-8.71935c7.31412,-5.56286 11.70547,-13.05556 11.70547,-22.44051c0,-9.87893 -3.46489,-17.30844 -11.16831,-22.66514c-7.80036,-5.42409 -19.53887,-8.3053 -36.17167,-8.0685l-1.04526,0.01487l-3.55155,-7.10309l42.45858,-44.49986h-54.47412v-9.3069h68.56937v8.31084l-42.16152,43.78311c14.04605,0.56034 24.93792,3.48022 33.76235,10.05743c8.88129,6.61959 13.9417,16.73989 13.9417,29.05086c0,13.23898 -6.62895,23.66927 -16.05196,30.35305c-9.40082,6.66801 -22.06406,10.11369 -34.2208,10.11369c-11.28747,0 -21.98273,-2.72316 -31.19656,-8.80728l-1.31137,-0.86593zM976.4154,497.58823c11.71878,0 23.35743,-3.16272 32.28961,-9.49835c8.90998,-6.31987 14.64515,-15.28846 14.64515,-27.63039c0,-11.56457 -4.31926,-20.20362 -12.59851,-26.37448c-8.33611,-6.21326 -20.27372,-9.50477 -35.6153,-9.4752l-3.93151,0.00757l46.60278,-48.3952v-3.62693h-61.89336v2.63088h58.93466l-46.22197,48.44418l1.5683,3.13661c16.5247,-0.05356 28.77638,2.90567 37.07069,8.67323c8.39124,5.83496 12.60063,14.81988 12.60063,25.40569c0,10.22708 -5.2015,19.14882 -13.02276,25.09738c-7.78976,5.9246 -18.66297,9.40048 -30.00208,9.40048c-9.57296,0 -18.01032,-2.05894 -27.12937,-7.45721l-1.32455,2.27066c8.35918,5.23229 17.14491,7.39107 28.02758,7.39107z" id="CompoundPath 1" fill-opacity="0" fill="#000000" stroke="#ffffff" stroke-width="7"/><path d="M1026.96715,407.93668" id="Path 2" fill="none" stroke="#000000" stroke-width="1"/></g></g></svg>