<svg version="1.1" xmlns="http://www.w3.org/2000/svg" xmlns:xlink="http://www.w3.org/1999/xlink" width="1293.52086" height="697.29184" viewBox="1605.81776,-25.08159,1293.52086,697.29184"><g fill="none" fill-rule="nonzero" stroke="none" stroke-width="none" stroke-linecap="round" stroke-linejoin="none" stroke-miterlimit="10" stroke-dasharray="" stroke-dashoffset="0" font-family="none" font-weight="none" font-size="none" text-anchor="none" style="mix-blend-mode: normal"><path d="M1679.49234,621.63715c20.75686,36.82828 49.45613,47.41279 71.5176,49.10567c22.06147,1.69289 52.5429,0.51092 79.79867,-33.90993c27.25576,-34.42085 18.24308,-83.72415 18.14426,-97.0842c14.80337,-1.11992 71.26327,-19.12653 114.18268,-88.4999c42.91941,-69.37336 16.28213,-133.13049 12.77424,-144.01663c-3.50789,-10.88614 -23.0444,-43.31307 -45.98609,-61.47176c-22.94169,-18.15869 -62.17984,-26.92836 -79.90074,-28.6745l-0.12299,-8.12222l66.93219,-53.39516c36.32442,-31.06224 37.00919,-76.4219 32.41238,-97.89862c-4.59681,-21.47672 -21.52922,-59.48474 -64.16328,-75.40839c-42.63406,-15.92365 -76.71168,1.62197 -96.6608,14.45338c-19.94911,12.8314 -41.59153,48.57409 -41.58792,69.94097l-0.00001,92.22005l-68.90565,51.48319c0,0 -36.70876,30.33045 -55.65474,72.81041c-18.94598,42.47996 -21.62749,95.00702 -1.56838,144.03138c15.0633,36.81461 52.20324,78.25987 77.17944,91.51858c-18.4117,10.9453 -39.14772,66.0894 -18.39086,102.91768z" id="Path 1" fill="#ffffff" stroke="#ffffff" stroke-width="2" stroke-linejoin="round"/><path d="M1778.8012,584.97084c0.44901,5.96024 -9.10198,16.81774 -18.5641,16.87326c-9.46212,0.05552 -19.52021,-7.38584 -19.72435,-17.26001c-0.20414,-9.87417 7.39748,-17.71707 7.45615,-25.13888c0.05867,-7.42181 -7.51489,-18.66347 -19.3376,-19.02276c-11.82271,-0.35929 -26.36313,16.84283 -26.04558,42.70184c0.31755,25.85901 24.94027,55.77542 54.07333,55.55871c29.13305,-0.21671 40.30062,-12.86159 46.89426,-20.06473c6.59365,-7.20314 13.67975,-18.50384 13.53632,-28.2329l-0.7735,-77.73715c22.96715,-0.58356 77.33029,-19.98139 99.43121,-51.3661c22.10093,-31.38471 39.5771,-64.39754 39.41275,-102.17444c-0.16436,-37.7769 -22.86221,-67.07866 -34.80768,-78.51065c-11.94547,-11.43199 -38.88123,-30.50222 -78.1239,-32.10042c-39.24267,-1.5982 -69.77707,16.80945 -82.37817,25.13888c-12.6011,8.32943 -42.21269,41.0706 -42.15597,80.05766c0.05672,38.98706 17.52481,54.68417 24.75213,62.26707c7.22732,7.5829 31.34406,21.56412 35.96793,21.27136l0.7735,22.43162c13.9678,3.472 29.53263,0.74726 37.75787,-1.1243l0.14383,-19.37355c5.3701,0.35892 21.72428,-6.09834 32.48717,-14.30982c10.76289,-8.21148 20.73959,-18.24561 26.68589,-40.22221c5.9463,-21.9766 -9.31071,-27.01877 -14.69658,-27.84614c-5.38587,-0.82737 -15.26543,2.90184 -19.72435,11.21581c-4.45892,8.31397 -0.88954,18.53484 -22.04486,29.7799c-21.15532,11.24506 -34.37343,0.79523 -44.47648,-4.25427c-10.10305,-5.0495 -18.30372,-17.66709 -19.05871,-36.4266c-0.75499,-18.75951 2.42596,-23.4375 7.0694,-31.64175c4.64344,-8.20425 15.85683,-16.24358 15.85683,-16.24358v62.26707c0,0 3.87493,14.18572 18.32924,14.61083c14.45432,0.42512 19.57245,-5.71553 19.57245,-5.71553v-91.27347c14.73513,-3.07696 36.74335,-3.0455 49.1175,1.93376c12.37415,4.97926 34.77412,21.01826 44.47648,40.22221c9.70236,19.20395 6.89581,46.3003 -3.48077,71.93587c-10.37658,25.63557 -26.84098,44.16732 -54.91878,59.55981c-28.0778,15.39249 -34.11744,14.38153 -56.07904,14.69658c-21.9616,0.31505 -60.05754,-10.37124 -84.31193,-36.74144c-24.25439,-26.3702 -31.6231,-51.27593 -33.64742,-81.21792c-2.02432,-29.94199 10.7467,-55.42063 25.13888,-75.80339c14.39218,-20.38276 14.9158,-16.44984 17.21218,-19.73355l58.97796,-42.92028v19.3376c18.39339,-7.09875 28.77093,-10.23269 36.74144,-10.82906l0.36308,-37.76012l75.82706,-58.26224c11.55755,-9.75771 26.47318,-27.72163 26.37105,-54.88283c-0.10213,-27.1612 -12.12031,-39.63662 -19.02276,-48.27208c-6.90245,-8.63546 -28.44713,-22.0503 -51.05126,-22.43162c-22.60413,-0.38132 -39.77007,11.95956 -50.66451,22.04486c-10.89444,10.0853 -19.624,31.75666 -19.3376,47.18374l-0.38675,97.84825l-73.86963,56.46579c-27.34394,22.75106 -48.2212,52.51915 -55.93521,71.93587c-7.71402,19.41672 -18.44446,35.86224 -4.78485,87.7927c13.65961,51.93046 28.36785,61.8317 50.66451,85.47219c22.29666,23.64049 72.70413,36.61967 84.13474,36.39063z" id="Path 1" fill="#1738a2" stroke="#1738a2" stroke-width="5" stroke-linejoin="round"/><g id="Group 1" fill="#e6ad00" stroke="#000000" stroke-width="0" stroke-linejoin="round"><path d="M1750.39255,506.03705l49.92533,-28.63296l-49.92533,-8.67529l-46.3362,-34.37145l-24.03826,-52.2098l-32.73989,18.92605l20.34007,48.5116l37.96087,38.17842z" id="Path 1"/><path d="M1780.74729,458.72981l16.50719,3.39189l18.09007,-4.52252l3.16576,-17.86394l37.08464,-18.3162l21.25583,-34.59726l-2.48738,-23.74322l-19.67295,-7.0099l-15.82881,16.95944l-8.14053,19.2207l-32.78825,11.98467l-33.69276,-18.99457l-9.49729,-36.18014l2.71351,-11.75855l-40.25041,23.29097l13.1153,43.41617l29.17024,23.06484l18.09007,12.2108z" id="Path 1"/><path d="M1780.97342,323.95879l35.27564,-20.35133l-0.9045,77.33505l-20.80358,6.1054l-16.95944,-15.15043z" id="Path 1"/><path d="M1847.2283,285.74351l44.77292,-25.3261l38.21527,28.49186l25.09997,53.81796l-3.88611,47.07949l-51.2886,29.35105l17.86394,-52.4612l-6.78378,-38.66753l-32.10987,-30.07474z" id="Path 1"/><path d="M1779.58687,162.47757l36.59453,-21.50809l0.11992,-67.27477l9.59355,-18.22775l18.82734,-9.59355l22.18509,4.79678l10.79274,14.51025l3.23782,13.67081l-2.03863,11.63218l-5.87605,9.83339l-28.18105,23.86396l73.51058,-41.85186l-5.39637,-37.17501l-34.77662,-32.37823l-48.56735,-4.3171l-40.89251,29.74001l-11.63218,45.8092z" id="Path 1"/></g><path d="M2199.33937,414.05581" id="Path 1" fill="none" stroke="#000000" stroke-width="1" stroke-linejoin="round"/><path d="M2859.76687,428.80177" id="Path 1" fill="none" stroke="#000000" stroke-width="1" stroke-linejoin="round"/><path d="M2584.44647,487.34203" id="Path 1" fill="none" stroke="#000000" stroke-width="1" stroke-linejoin="round"/><g id="Group 1" fill="#ffffff" stroke="#ffffff" stroke-width="1"><g id="Group 1"><g id="Group 1"><path d="M2607.40159,456.5162c0,0 -8.59281,-3.43248 -12.83137,-3.35774c-4.23856,0.07474 -7.70687,1.53891 -10.15509,3.74408c-2.44822,2.20517 -4.9851,5.99563 -4.95475,9.08729c0.03035,3.09166 2.92234,8.44177 8.34113,11.16591c5.41879,2.72414 12.62925,6.58392 12.64476,8.86063c0.02122,3.1161 -5.69512,4.38883 -7.78555,4.36028c-2.33022,-0.03182 -6.19622,-1.11545 -11.53495,-4.80209l-1.42556,9.91544c0,0 10.1559,3.25511 14.73707,2.9987c4.58117,-0.25641 9.01769,-1.33043 11.64519,-3.71822c2.6275,-2.38778 4.31973,-6.44066 4.19718,-9.71347c-0.12255,-3.27281 -3.37864,-9.13725 -9.35371,-11.99194c-5.97508,-2.85469 -11.96325,-5.95574 -11.87201,-8.15452c0.11607,-2.79721 4.14426,-3.80526 6.47565,-3.7175c3.16885,0.11929 7.05072,1.55359 10.43298,4.55694z" id="Path 1" stroke-linejoin="round"/><path d="M2615.79595,454.23773l10.67282,0.11992l0.35976,43.2909l-10.91266,-0.11992z" id="Path 1" stroke-linejoin="round"/><path d="M2634.74321,454.11781l7.19516,0.11992l21.70541,27.8213l-0.11992,-28.18105l9.95331,0.11992v43.65065l-7.435,0.11992l-22.66476,-28.06114l0.23984,27.94122l-8.6342,-0.11992z" id="Path 1" stroke-linejoin="round"/><path d="M2715.6888,484.57734l1.19919,9.59355c0,0 -9.82192,4.40756 -15.34968,4.43702c-5.52776,0.02946 -13.19116,-2.39736 -16.42896,-6.23581c-3.2378,-3.83845 -5.73054,-11.25982 -5.63621,-16.78871c0.09434,-5.52889 3.09014,-12.72646 6.95533,-16.42896c3.86519,-3.7025 9.07744,-5.65859 15.10984,-5.75613c6.0324,-0.09754 15.10984,4.3171 15.10984,4.3171l-1.07927,9.47363c0,0 -6.73354,-4.99138 -13.55089,-4.91669c-6.81735,0.07469 -11.74082,4.99167 -11.87202,13.43097c-0.1312,8.4393 3.6177,13.15222 11.7521,13.43097c8.1344,0.27875 13.79073,-4.55694 13.79073,-4.55694z" id="Path 1" stroke-linejoin="bevel"/><path d="M2724.56283,454.11781l26.50219,0.11992c1.49899,4.43701 1.00451,6.79016 0.35976,9.35371l-17.38831,0.23984v7.79476l15.94928,0.11992l0.35976,7.67484l-16.30904,0.23984v9.47363h18.34767c-0.11992,4.97666 -0.38974,6.52811 -1.43903,8.27444l-26.14243,0.35976z" id="Path 1" stroke-linejoin="round"/></g><g id="Group 1" stroke-linejoin="round"><path d="M2864.79121,475.39856c0.36992,-15.89099 7.25334,-22.22995 16.75064,-22.18916c9.4973,0.04079 17.45083,6.47596 17.2945,22.29793c-0.15633,15.82197 -5.90168,23.22276 -17.18573,23.38564c-11.28405,0.16288 -17.22933,-7.60342 -16.85941,-23.49441zM2881.86093,489.54031c4.02712,-0.02988 7.20083,-2.36612 7.07008,-14.35769c-0.13075,-11.99157 -3.25969,-12.65063 -7.17885,-12.61737c-3.91916,0.03326 -6.94542,2.65149 -7.07008,13.26999c-0.12466,10.6185 3.15173,13.73495 7.17885,13.70507z" id="CompoundPath 1"/><path d="M2845.64762,480.94585c0,0 -2.66686,1.88509 -5.85355,1.71913c-3.18669,-0.16596 -11.64866,-1.58347 -11.76726,-13.24879c-0.1186,-11.66532 7.84836,-16.09153 16.31556,-15.98925c8.4672,0.10228 16.022,5.77537 15.88048,14.684c-0.14152,8.90863 -3.15303,11.5529 -5.11221,14.46646l-10.76827,14.90155l-10.76827,-0.21754zM2844.01605,475.39856c3.57211,0.06322 6.73394,-2.5888 6.74377,-6.85254c0.00983,-4.26374 -2.09857,-6.49905 -6.30868,-6.52622c-4.21011,-0.02717 -6.33362,2.76821 -6.52622,6.41745c-0.1926,3.64924 2.51902,6.89809 6.09113,6.96131z" id="CompoundPath 1"/><path d="M2800.39912,475.50733c0,0 -5.47699,-2.01195 -5.54729,-9.13671c-0.0703,-7.12476 5.83869,-12.9271 14.57524,-12.83491c8.73655,0.09219 14.9394,5.48028 14.79278,11.7472c-0.14662,6.26692 -6.30868,9.35426 -6.30868,9.35426c0,0 7.37542,4.54004 7.39639,10.76827c0.02097,6.22823 -4.55942,13.12774 -15.88048,13.37876c-11.32106,0.25102 -16.77605,-5.986 -16.64187,-12.29105c0.13418,-6.30506 7.61391,-10.98582 7.61391,-10.98582zM2803.67856,466.87761c0.06502,3.20205 2.02674,5.44712 5.16437,5.47537c3.13764,0.02825 5.57613,-2.01679 5.57051,-5.46322c-0.00562,-3.44642 -2.07717,-5.57842 -5.47109,-5.58962c-3.39391,-0.0112 -5.3288,2.37542 -5.26378,5.57747zM2802.91709,485.69066c0.06502,3.20205 2.02681,5.88643 5.92584,5.91468c3.89903,0.02825 6.55506,-1.79926 6.54944,-6.11584c-0.00562,-4.31659 -2.29202,-6.31319 -6.66486,-6.32439c-4.37284,-0.0112 -5.87544,3.3235 -5.81042,6.52555z" id="CompoundPath 1"/><path d="M2787.34667,497.58772h-10.00688l0.32631,-32.52235l-8.59286,5.98237l-0.10877,-9.5718l13.26999,-7.39639h5.00344z" id="Path 1"/></g></g><g id="Group 1" stroke-linejoin="round"><g id="Group 1"><path d="M2103.86667,346.58235l6.74954,-34.59142c-20.333,-10.12432 -28.84376,-12.27574 -45.39069,-11.47423c-20.0799,0.16874 -27.92624,2.82637 -41.84718,14.17404c-16.78949,15.60832 -20.99741,25.13151 -22.44224,50.79032c1.0968,23.79214 4.35557,32.39781 17.38008,45.8969c13.75219,12.57103 21.63018,15.70324 42.01591,16.70512c25.05768,-1.60302 34.39104,-3.97591 49.77789,-12.6554l0.33748,-59.05851l-48.76546,-0.50622l0.33748,24.63584l14.68026,0.16874l0.16874,12.48666c-6.07459,2.78419 -8.54239,3.44859 -13.16161,3.54351c-10.88364,-1.0968 -14.58535,-3.09002 -19.74242,-10.63053c-3.79662,-10.03994 -4.65086,-13.80492 -4.55594,-20.07989c1.01243,-13.66783 2.72091,-18.4136 9.11189,-25.31079c5.484,-5.56837 9.31226,-6.96047 20.41737,-7.4245c12.90851,0.42185 19.45768,2.92129 34.9289,13.33036z" id="Path 1"/><path d="M2130.6424,303.32853l36.24853,-0.05166l0.11511,88.53651l48.02441,0.13626l-4.57596,33.32154l-79.50905,-0.12447z" id="Path 1"/><path d="M2227.84077,303.26024v121.99801l78.29471,-0.16874l3.54351,-31.38538l-45.39069,-0.16874l-0.16874,-17.54882l38.97862,-0.50622v-24.4671l-39.48484,-0.16874l-0.16874,-16.36765l46.06564,-0.16874l-3.71225,-30.87917z" id="Path 1"/><path d="M2326.7216,303.22469v121.99801l78.29471,-0.16874l3.54351,-31.38538l-45.39069,-0.16874l-0.16874,-17.54882l38.97862,-0.50622v-24.4671l-39.48484,-0.16874l-0.16874,-16.36765l46.06564,-0.16874l-3.71225,-30.87917z" id="Path 1"/></g><g id="Group 1"><path d="M2557.55602,346.45732l5.56837,-35.09763c-19.65805,-9.44936 -27.40948,-11.47422 -41.34096,-10.79927c-21.68291,1.01243 -30.67878,4.3872 -45.0532,18.72998c-13.49909,17.29571 -16.47311,25.99629 -15.86143,46.40312c0.59059,22.10476 3.09003,30.94244 15.52395,44.20951c17.46445,14.68026 25.99629,18.43469 46.23438,18.56124c18.81435,-1.01243 26.56578,-3.22713 41.34096,-11.81171l-6.07459,-34.25394c-11.13675,9.11189 -16.7684,11.38986 -30.03548,12.14918c-11.98044,0.42184 -16.34655,-1.5081 -23.28593,-10.29306c-4.21847,-9.78684 -5.2309,-13.52018 -5.39964,-19.91116c1.0968,-12.48666 2.83692,-16.91605 9.28062,-23.62341c4.47158,-4.89342 7.98345,-6.28551 18.72999,-7.4245c13.24598,-0.33747 22.26295,6.24335 30.37296,13.16165z" id="Path 1"/><path d="M2581.76888,303.2782l36.24853,-0.05166l0.11511,88.53651l48.02441,0.13626l-4.57596,33.32154l-79.50905,-0.12447z" id="Path 1"/><path d="M2673.47944,303.26024l36.95376,0.16874l0.17075,70.5524c0.33748,11.38986 3.56259,20.55591 17.04059,20.56645c13.478,0.01055 17.50663,-5.3469 17.0426,-21.09233l-0.16874,-70.19526l37.79745,-0.16874l-0.16874,72.5576c0.33747,19.2362 -6.09568,31.8916 -16.87386,40.83475c-10.77818,8.94315 -15.85979,11.78195 -37.79581,11.64485c-21.93602,-0.1371 -31.9396,-5.13493 -39.65522,-13.33224c-7.71561,-8.19731 -13.72165,-22.67458 -14.01041,-38.61064z" id="Path 1"/><path d="M2800.70835,302.92276l49.77789,-0.33748c10.4618,-0.08437 21.00796,3.21658 28.34809,8.60567c7.76198,6.24333 12.29683,10.60944 12.48666,23.28593c0.18983,12.67649 -7.25576,19.57368 -7.25576,19.57368c-4.89342,4.30284 -7.4245,5.72657 -13.49909,7.59324c8.69004,2.1936 11.82225,3.64898 16.70512,7.76198c0,0 8.33099,5.69822 8.43693,20.75485c0.10594,15.05663 -6.08514,20.11153 -8.60567,23.11719c-4.55594,5.39963 -19.61586,12.29682 -31.72286,12.48665h-54.50257zM2836.81842,351.85697l13.33044,-0.1606c3.29444,-0.04334 7.7727,-5.5179 7.93062,-10.97615c0.15791,-5.45825 -4.39486,-10.13607 -8.10666,-10.0644l-13.49188,0.10882zM2837.15589,397.24765h12.14918c4.41315,0.05846 13.2308,-5.13126 13.33035,-12.48666c0.09955,-7.3554 -8.24348,-11.89371 -13.16161,-11.64296h-12.31792z" id="CompoundPath 1"/></g></g><g id="Group 1" stroke-linejoin="round"><g id="Group 1"><path d="M2271.75188,171.22309l101.76078,0.18604l2.23241,24.18446l-6.13913,-0.18603c-0.09302,-8.18551 -6.84839,-16.46404 -14.88275,-16.37102h-21.95205l0.18106,74.59977c0.09302,9.11568 6.22549,12.5573 16.18996,12.46429v5.58103l-53.01978,-0.37207v-5.395c11.99899,-0.37374 15.95906,-2.20914 16.17997,-12.83636l-0.18101,-73.85563l-21.57864,-0.16991c-9.39473,0.37207 -14.15157,6.96016 -14.51202,16.3549h-5.9531z" id="Path 1"/><path d="M2161.61956,171.22308l101.76078,0.18604l2.23241,24.18446l-6.13913,-0.18603c-0.09302,-8.18551 -6.84839,-16.46404 -14.88275,-16.37102h-21.95205l0.18106,74.59977c0.09302,9.11568 6.22549,12.5573 16.18996,12.46429v5.58103l-53.01978,-0.37207v-5.395c11.99899,-0.37374 15.95906,-2.20914 16.17997,-12.83636l-0.18101,-73.85563l-21.57864,-0.16991c-9.39473,0.37207 -14.15157,6.96016 -14.51202,16.3549h-5.9531z" id="Path 1"/><path d="M2099.4841,170.85101h53.76392l0.18603,5.9531c-11.72016,-0.18604 -16.278,4.04624 -16.37102,12.65033v63.4377c0.65112,8.6506 2.5696,13.24332 16.18499,13.58051l0.18603,5.02293h-53.39185l-0.18603,-5.20896c9.02267,0.09302 16.33614,-2.80214 16.18499,-9.48775v-69.9489c-0.18603,-8.74361 -6.23215,-10.3249 -16.37102,-10.41792z" id="Path 1"/><path d="M2000.88591,176.24601l-0.18603,-4.83689l62.69357,-0.18603c6.93453,0.23335 13.92844,3.0713 19.62081,9.76638c5.69237,6.69508 7.6866,11.59082 7.72623,18.13876c0.03963,6.54794 -2.2201,14.2327 -7.99948,19.34757c-5.77938,5.11487 -15.44918,9.70858 -22.88222,9.85982l-21.76992,-0.18606l-0.18213,26.04483c-0.09302,8.18551 4.24391,11.97597 16.55706,12.09224v5.02292l-53.57788,0.37207l-0.18603,-5.20896c13.95258,0.18603 16.278,-5.02293 16.37102,-11.9062l-0.37207,-68.8327c-0.27906,-8.46456 -7.89484,-9.68541 -15.81293,-9.48775zM2038.09277,220.1501l13.80491,-0.31333c5.61576,0.03738 16.29418,-9.24119 16.14303,-20.53115c-0.15116,-11.28995 -11.25119,-20.0139 -17.66937,-20.29295l-12.65064,-0.16218z" id="CompoundPath 1"/></g><g id="Group 1"><path d="M2410.617,171.06537l34.2834,0.15305l31.98764,71.16867l30.76323,-70.86256l33.3651,-0.15305l0.15305,4.74458c-11.09619,-0.22958 -16.10364,3.51124 -16.07494,10.40809l-0.29164,67.95335c0.15305,7.19339 4.35209,11.72814 15.90743,11.78554v4.74458l-52.64951,0.45915l0.15305,-5.05068c11.86144,-0.3061 15.58249,-4.09411 15.76424,-11.32577v-54.94527l-31.83459,73.92358h-3.97932l-32.90594,-73.77053v52.3434c-0.07653,5.96898 0.98526,13.25803 15.45814,13.46848l0.3061,5.20373h-40.09933l-0.15305,-5.20373c13.2389,0.07652 16.25827,-5.48376 16.32524,-11.65362l0.05121,-66.70844c0,-9.10653 -7.99691,-11.27794 -16.5295,-11.32577z" id="Path 1"/><path d="M2551.88297,171.21842l86.62681,0.3061l1.98966,23.87594h-5.66288c-2.10486,-9.22294 -6.30447,-15.80019 -14.38748,-15.92455l-30.76254,-0.14579l0.3061,34.74255l14.83626,-0.25126c10.33094,-0.15305 11.67024,-1.10706 11.94765,-15.66603h6.42814l0.15305,40.40544h-6.27509c-0.22957,-12.09102 -3.24395,-16.15845 -10.10255,-15.92888l-16.83441,-0.14146l-0.14956,32.75291c0.15305,3.67322 4.83665,7.75346 9.79168,7.81085l25.40682,0.43804c10.94314,-0.15305 13.58306,-10.19668 14.53956,-16.51366h5.20373l-0.91831,24.48814l-92.13664,0.15305v-5.35678c10.86661,0.07653 16.1817,-4.4577 16.20083,-10.87627l0.02256,-67.63884c-0.07653,-8.80043 -6.20813,-10.97184 -16.37645,-11.17272z" id="Path 1"/><path d="M2658.27986,170.79064l34.76981,0.19534l53.71741,65.24223l-0.19006,-49.2247c-0.293,-8.10645 -5.41365,-10.48709 -15.8275,-10.9388v-5.07874l40.6299,-0.19534l-0.11372,5.47575c-10.74348,0.19534 -15.05095,2.8513 -14.92887,9.37064l-0.38895,88.68171l-4.68806,0.19534l-68.36761,-81.65047l0.19534,63.28888c0.09767,6.64142 4.55377,10.10864 15.43155,10.15747l0.19534,4.8834l-40.23923,0.39067l0.19534,-5.27407c11.03649,0.09767 15.76118,-3.47942 15.82222,-10.74348l-0.38499,-66.21895c-0.39067,-10.15747 -2.42296,-12.62356 -16.02323,-13.08748z" id="Path 1"/><path d="M2786.81097,208.29516l3.32071,3.90672c6.81847,-3.22692 11.27178,-7.9377 14.70292,-13.52014c3.43114,-5.58244 5.19012,-10.83501 5.07856,-17.02864c-0.11156,-6.19363 -4.33322,-13.39702 -12.55405,-13.40183c-8.22083,-0.00482 -10.30259,6.81389 -10.27134,11.9155c0.03124,5.10161 2.91087,10.6571 11.24802,10.74348c-4.52559,10.23848 -6.6865,13.49815 -11.52482,17.38491z" id="Path 1"/><path d="M2826.64383,236.7752h5.24746c3.93559,12.09831 6.12204,16.14323 11.66102,21.57289c5.53898,5.42966 12.56901,8.21704 18.8034,8.16271c6.23439,-0.05433 15.46715,-3.32181 15.59661,-15.59661c0.07566,-7.17374 0.66847,-11.46646 -22.3017,-22.88475c-22.97017,-11.41829 -27.32919,-20.56885 -27.69492,-33.23391c-0.36573,-12.66506 6.28257,-17.10699 9.62034,-19.9695c3.33777,-2.86251 10.39877,-6.49385 19.9695,-6.2678c9.57073,0.22605 14.55806,1.7947 20.11526,6.85085c2.55085,-2.3322 3.63496,-5.02881 4.22712,-8.16271l5.39322,-0.14576v38.18984l-5.32875,-0.0497c-2.62373,-10.93221 -1.66787,-14.78166 -6.91532,-21.23166c-5.24746,-6.45 -8.91897,-7.75657 -16.0339,-7.57966c-7.11493,0.17691 -14.10606,8.07329 -13.99322,12.97289c0.23034,10.00187 9.70986,14.48234 28.35537,24.0532c18.64551,9.57087 22.60744,21.0697 22.51583,30.7536c-0.09161,9.68389 -5.12273,17.27167 -10.78645,22.30171c-5.66371,5.03004 -15.15419,8.42307 -23.03051,8.6c-7.87633,0.17693 -25.65425,-8.6 -25.65425,-8.6c-1.95927,2.05174 -4.08625,4.21588 -4.37288,7.87119l-5.24746,0.14576z" id="Path 1"/></g></g></g><path d="M1816.60845,143.96438l0.3508,-68.05432c0.06025,-10.05603 10.09986,-28.92086 31.92239,-29.11602c21.82253,-0.19516 32.64653,18.64534 32.27318,31.2208c1.38063,13.62784 -8.90989,24.53574 -13.33023,27.71285z" id="Path 1" fill="#ffffff" stroke="#1738a2" stroke-width="5" stroke-linejoin="round"/><path d="M1727.85721,519.66631" id="Path 1" fill="none" stroke="#000000" stroke-width="1" stroke-linejoin="round"/><path d="M1796.12385,340.23985" id="Path 1" fill="none" stroke="#000000" stroke-width="1" stroke-linejoin="round"/><path d="M1778.8012,584.97084c0.44901,5.96024 -9.10198,16.81774 -18.5641,16.87326c-9.46212,0.05552 -19.52021,-7.38584 -19.72435,-17.26001c-0.20414,-9.87417 7.39748,-17.71707 7.45615,-25.13888c0.05867,-7.42181 -7.51489,-18.66347 -19.3376,-19.02276c-11.82271,-0.35929 -26.36313,16.84283 -26.04558,42.70184c0.31755,25.85901 24.94027,55.77542 54.07333,55.55871c29.13305,-0.21671 40.30062,-12.86159 46.89426,-20.06473c6.59365,-7.20314 13.67975,-18.50384 13.53632,-28.2329l-0.7735,-77.73715c22.96715,-0.58356 77.33029,-19.98139 99.43121,-51.3661c22.10093,-31.38471 39.5771,-64.39754 39.41275,-102.17444c-0.16436,-37.7769 -22.86221,-67.07866 -34.80768,-78.51065c-11.94547,-11.43199 -38.88123,-30.50222 -78.1239,-32.10042c-39.24267,-1.5982 -69.77707,16.80945 -82.37817,25.13888c-12.6011,8.32943 -42.21269,41.0706 -42.15597,80.05766c0.05672,38.98706 17.52481,54.68417 24.75213,62.26707c7.22732,7.5829 31.34406,21.56412 35.96793,21.27136l0.7735,22.43162c13.9678,3.472 29.53263,0.74726 37.75787,-1.1243l0.14383,-19.37355c5.3701,0.35892 21.72428,-6.09834 32.48717,-14.30982c10.76289,-8.21148 20.73959,-18.24561 26.68589,-40.22221c5.9463,-21.9766 -9.31071,-27.01877 -14.69658,-27.84614c-5.38587,-0.82737 -15.26543,2.90184 -19.72435,11.21581c-4.45892,8.31397 -0.88954,18.53484 -22.04486,29.7799c-21.15532,11.24506 -34.37343,0.79523 -44.47648,-4.25427c-10.10305,-5.0495 -18.30372,-17.66709 -19.05871,-36.4266c-0.75499,-18.75951 2.42596,-23.4375 7.0694,-31.64175c4.64344,-8.20425 15.85683,-16.24358 15.85683,-16.24358v62.26707c0,0 3.87493,14.18572 18.32924,14.61083c14.45432,0.42512 19.57245,-5.71553 19.57245,-5.71553v-91.27347c14.73513,-3.07696 36.74335,-3.0455 49.1175,1.93376c12.37415,4.97926 34.77412,21.01826 44.47648,40.22221c9.70236,19.20395 6.89581,46.3003 -3.48077,71.93587c-10.37658,25.63557 -26.84098,44.16732 -54.91878,59.55981c-28.0778,15.39249 -34.11744,14.38153 -56.07904,14.69658c-21.9616,0.31505 -60.05754,-10.37124 -84.31193,-36.74144c-24.25439,-26.3702 -31.6231,-51.27593 -33.64742,-81.21792c-2.02432,-29.94199 10.7467,-55.42063 25.13888,-75.80339c14.39218,-20.38276 14.9158,-16.44984 17.21218,-19.73355l58.97796,-42.92028v19.3376c18.39339,-7.09875 28.77093,-10.23269 36.74144,-10.82906l0.36308,-37.76012l75.82706,-58.26224c11.55755,-9.75771 26.47318,-27.72163 26.37105,-54.88283c-0.10213,-27.1612 -12.12031,-39.63662 -19.02276,-48.27208c-6.90245,-8.63546 -28.44713,-22.0503 -51.05126,-22.43162c-22.60413,-0.38132 -39.77007,11.95956 -50.66451,22.04486c-10.89444,10.0853 -19.624,31.75666 -19.3376,47.18374l-0.38675,97.84825l-73.86963,56.46579c-27.34394,22.75106 -38.60118,43.99857 -55.93521,71.93587c-17.33403,27.9373 -12.43887,79.84269 0.2434,110.84808c12.68227,31.00539 22.27568,40.62072 45.63626,62.41681c23.36059,21.79609 72.70413,36.61967 84.13474,36.39063z" id="Path 1" fill-opacity="0" fill="#1738a2" stroke="#1738a2" stroke-width="5" stroke-linejoin="round"/></g></svg>